<svg width="25" height="24" viewBox="0 0 25 24" fill="none" xmlns="http://www.w3.org/2000/svg">
<path d="M5.12402 17.9102H7.4707V16.1875H5.22949C4.81934 16.1875 4.50586 16.082 4.28906 15.8711C4.07812 15.6543 3.97266 15.332 3.97266 14.9043V6.24707C3.97266 5.81934 4.07812 5.5 4.28906 5.28906C4.50586 5.07227 4.81934 4.96387 5.22949 4.96387H13.9219C14.3262 4.96387 14.6367 5.07227 14.8535 5.28906C15.0703 5.5 15.1787 5.81934 15.1787 6.24707V8.16309H16.9102V6.09766C16.9102 5.16016 16.667 4.45117 16.1807 3.9707C15.6943 3.48438 14.9766 3.24121 14.0273 3.24121H5.12402C4.1748 3.24121 3.45703 3.48145 2.9707 3.96191C2.48438 4.44238 2.24121 5.1543 2.24121 6.09766V15.0537C2.24121 15.9971 2.48438 16.709 2.9707 17.1895C3.45703 17.6699 4.1748 17.9102 5.12402 17.9102ZM9.50098 22.0938H16.3564C16.1162 21.8535 15.8965 21.5869 15.6973 21.2939C15.5039 21.0068 15.3428 20.6992 15.2139 20.3711H9.60645C9.19629 20.3711 8.88281 20.2627 8.66602 20.0459C8.44922 19.835 8.34082 19.5156 8.34082 19.0879V10.4307C8.34082 10.0029 8.44922 9.68359 8.66602 9.47266C8.88281 9.25586 9.19629 9.14746 9.60645 9.14746H18.2988C18.7031 9.14746 19.0137 9.25586 19.2305 9.47266C19.4473 9.68359 19.5557 10.0029 19.5557 10.4307V12.3203C19.7021 12.2969 19.8457 12.2793 19.9863 12.2676C20.1328 12.2559 20.2793 12.25 20.4258 12.25C20.5723 12.25 20.7158 12.2559 20.8564 12.2676C21.0029 12.2793 21.1465 12.2969 21.2871 12.3203V10.2725C21.2871 9.34082 21.0439 8.63184 20.5576 8.14551C20.0713 7.65918 19.3535 7.41602 18.4043 7.41602H9.50098C8.55176 7.41602 7.83398 7.65918 7.34766 8.14551C6.86133 8.62598 6.61816 9.33496 6.61816 10.2725V19.2373C6.61816 20.1807 6.86133 20.8926 7.34766 21.373C7.83398 21.8535 8.55176 22.0938 9.50098 22.0938ZM20.4346 22.5508C21.0439 22.5508 21.6211 22.4307 22.166 22.1904C22.7168 21.9561 23.2002 21.6309 23.6162 21.2148C24.0381 20.7988 24.3662 20.3154 24.6006 19.7646C24.8408 19.2197 24.9609 18.6396 24.9609 18.0244C24.9609 17.4033 24.8408 16.8203 24.6006 16.2754C24.3662 15.7246 24.041 15.2412 23.625 14.8252C23.209 14.4092 22.7285 14.084 22.1836 13.8496C21.6387 13.6152 21.0557 13.498 20.4346 13.498C19.8135 13.498 19.2305 13.6152 18.6855 13.8496C18.1406 14.084 17.6602 14.4121 17.2441 14.834C16.8281 15.25 16.5 15.7305 16.2598 16.2754C16.0254 16.8203 15.9082 17.4033 15.9082 18.0244C15.9082 18.6455 16.0254 19.2285 16.2598 19.7734C16.5 20.3184 16.8281 20.7988 17.2441 21.2148C17.6602 21.6367 18.1406 21.9648 18.6855 22.1992C19.2305 22.4336 19.8135 22.5508 20.4346 22.5508ZM20.4346 21.3994C20.0068 21.3994 19.6172 21.335 19.2656 21.2061C18.9141 21.0771 18.6182 20.916 18.3779 20.7227C18.1436 20.5293 17.9824 20.333 17.8945 20.1338V20.0898C17.9883 19.9023 18.1494 19.7207 18.3779 19.5449C18.6123 19.3691 18.9023 19.2227 19.248 19.1055C19.5938 18.9941 19.9863 18.9385 20.4258 18.9385C20.8711 18.9385 21.2666 18.9971 21.6123 19.1143C21.9639 19.2314 22.2539 19.3779 22.4824 19.5537C22.7109 19.7295 22.8721 19.9082 22.9658 20.0898V20.1338C22.8779 20.333 22.7139 20.5293 22.4736 20.7227C22.2393 20.9219 21.9463 21.083 21.5947 21.2061C21.249 21.335 20.8623 21.3994 20.4346 21.3994ZM20.4258 18.2178C20.0332 18.2178 19.7021 18.0713 19.4326 17.7783C19.1631 17.4854 19.0283 17.1162 19.0283 16.6709C19.0283 16.2666 19.1631 15.918 19.4326 15.625C19.708 15.3262 20.0391 15.1768 20.4258 15.1768C20.8242 15.1768 21.1582 15.3262 21.4277 15.625C21.6973 15.918 21.832 16.2666 21.832 16.6709C21.832 17.1162 21.6973 17.4854 21.4277 17.7783C21.1582 18.0713 20.8242 18.2178 20.4258 18.2178Z" fill="black" fill-opacity="1"/>
</svg>
