<svg width="256" height="256" viewBox="0 0 256 256" fill="none" xmlns="http://www.w3.org/2000/svg">
<path d="M127.857 207.278C86.0747 207.278 44.1888 182.371 3.35392 133.246C0.757476 130.121 0.757476 125.592 3.35392 122.467C44.1888 73.3454 86.0747 48.4376 127.857 48.4376C169.636 48.4376 211.524 73.3454 252.359 122.467C254.958 125.592 254.958 130.121 252.359 133.246C211.524 182.368 169.636 207.278 127.857 207.278ZM20.8911 127.857C56.8479 169.377 92.8103 190.418 127.857 190.418C162.906 190.418 198.865 169.38 234.822 127.857C198.865 86.336 162.906 65.2976 127.857 65.2976C92.8103 65.2976 56.8479 86.336 20.8911 127.857Z" fill="rgba(255, 255, 255, 0.4)"/>
<path d="M127.857 175.627C101.516 175.627 80.0866 154.198 80.0866 127.857C80.0866 101.516 101.516 80.0866 127.857 80.0866C154.198 80.0866 175.627 101.516 175.627 127.857C175.627 154.198 154.198 175.627 127.857 175.627ZM127.857 96.9466C110.814 96.9466 96.9466 110.814 96.9466 127.857C96.9466 144.899 110.814 158.767 127.857 158.767C144.899 158.767 158.767 144.899 158.767 127.857C158.767 110.814 144.899 96.9466 127.857 96.9466Z" fill="rgba(255, 255, 255, 0.4)"/>
<line x1="39.0115" y1="218.761" x2="210.478" y2="47.9885" stroke="rgba(255, 255, 255, 0.4)" stroke-width="8" stroke-linecap="round"/>
</svg>
