<svg width="20" height="20" viewBox="0 0 20 20" fill="none" xmlns="http://www.w3.org/2000/svg">
<path d="M5.7959 19.4541C6.04199 19.4541 6.27051 19.3896 6.48145 19.2607C6.69824 19.1377 6.95605 18.9443 7.25488 18.6807L10.2607 16.0176H15.5781C16.4629 16.0176 17.21 15.8535 17.8193 15.5254C18.4346 15.1973 18.9033 14.7285 19.2256 14.1191C19.5479 13.5039 19.709 12.7598 19.709 11.8867V5.06641C19.709 4.19336 19.5479 3.45215 19.2256 2.84277C18.9033 2.22754 18.4346 1.75586 17.8193 1.42773C17.21 1.09961 16.4629 0.935547 15.5781 0.935547H4.37207C3.4873 0.935547 2.7373 1.09961 2.12207 1.42773C1.5127 1.75586 1.04688 2.22754 0.724609 2.84277C0.402344 3.45215 0.241211 4.19336 0.241211 5.06641V11.8867C0.241211 12.7598 0.402344 13.5039 0.724609 14.1191C1.05273 14.7285 1.51855 15.1973 2.12207 15.5254C2.73145 15.8535 3.46094 16.0176 4.31055 16.0176H4.6709V18.1797C4.6709 18.5723 4.76758 18.8828 4.96094 19.1113C5.16016 19.3398 5.43848 19.4541 5.7959 19.4541ZM6.21777 17.5117V15.0068C6.21777 14.7432 6.15918 14.5586 6.04199 14.4531C5.93066 14.3418 5.75195 14.2861 5.50586 14.2861H4.41602C3.58984 14.2861 2.97461 14.0811 2.57031 13.6709C2.17188 13.2549 1.97266 12.6396 1.97266 11.8252V5.11914C1.97266 4.31055 2.17188 3.70117 2.57031 3.29102C2.97461 2.875 3.58984 2.66699 4.41602 2.66699H15.5342C16.3604 2.66699 16.9727 2.875 17.3711 3.29102C17.7754 3.70117 17.9775 4.31055 17.9775 5.11914V11.8252C17.9775 12.6396 17.7754 13.2549 17.3711 13.6709C16.9727 14.0811 16.3604 14.2861 15.5342 14.2861H10.1729C9.90332 14.2861 9.68652 14.3184 9.52246 14.3828C9.36426 14.4414 9.19434 14.5645 9.0127 14.752L6.21777 17.5117ZM9.97949 9.93555C10.4717 9.93555 10.7236 9.67773 10.7354 9.16211L10.876 4.89062C10.8877 4.63867 10.8057 4.43066 10.6299 4.2666C10.4541 4.09668 10.2314 4.01172 9.96191 4.01172C9.69238 4.01172 9.47266 4.09375 9.30273 4.25781C9.13281 4.42188 9.05371 4.63281 9.06543 4.89062L9.18848 9.16211C9.20605 9.67773 9.46973 9.93555 9.97949 9.93555ZM9.97949 12.8535C10.2549 12.8535 10.4951 12.7627 10.7002 12.5811C10.9053 12.3994 11.0078 12.168 11.0078 11.8867C11.0078 11.6055 10.9053 11.374 10.7002 11.1924C10.501 11.0107 10.2607 10.9199 9.97949 10.9199C9.69238 10.9199 9.44629 11.0137 9.24121 11.2012C9.04199 11.3828 8.94238 11.6113 8.94238 11.8867C8.94238 12.1621 9.04199 12.3936 9.24121 12.5811C9.44629 12.7627 9.69238 12.8535 9.97949 12.8535Z" fill="#ED695E" fill-opacity="1"/>
</svg>
