<svg width="24" height="24" fill="none" xmlns="http://www.w3.org/2000/svg">
<path d="M11.6523 21.7334C12.8945 21.7334 14.0635 21.4961 15.1592 21.0215C16.2549 20.5527 17.2217 19.8994 18.0596 19.0615C18.8975 18.2236 19.5537 17.2568 20.0283 16.1611C20.5029 15.0654 20.7402 13.8965 20.7402 12.6543C20.7402 11.4121 20.5029 10.2432 20.0283 9.14746C19.5537 8.05176 18.8975 7.08789 18.0596 6.25586C17.2217 5.41797 16.2549 4.76172 15.1592 4.28711C14.0635 3.8125 12.8916 3.5752 11.6436 3.5752C10.4014 3.5752 9.23242 3.8125 8.13672 4.28711C7.04688 4.76172 6.08301 5.41797 5.24512 6.25586C4.41309 7.08789 3.75977 8.05176 3.28516 9.14746C2.81055 10.2432 2.57324 11.4121 2.57324 12.6543C2.57324 13.8965 2.81055 15.0654 3.28516 16.1611C3.75977 17.2568 4.41309 18.2236 5.24512 19.0615C6.08301 19.8994 7.0498 20.5527 8.14551 21.0215C9.24121 21.4961 10.4102 21.7334 11.6523 21.7334ZM11.6523 19.9404C10.6445 19.9404 9.69824 19.7529 8.81348 19.3779C7.93457 19.0029 7.16113 18.4814 6.49316 17.8135C5.83105 17.1455 5.3125 16.3721 4.9375 15.4932C4.5625 14.6143 4.375 13.668 4.375 12.6543C4.375 11.6465 4.5625 10.7031 4.9375 9.82422C5.3125 8.93945 5.83105 8.16309 6.49316 7.49512C7.15527 6.82715 7.92578 6.30566 8.80469 5.93066C9.68945 5.55566 10.6357 5.36816 11.6436 5.36816C12.6572 5.36816 13.6035 5.55566 14.4824 5.93066C15.3672 6.30566 16.1436 6.82715 16.8115 7.49512C17.4795 8.16309 18.001 8.93945 18.376 9.82422C18.751 10.7031 18.9385 11.6465 18.9385 12.6543C18.9385 13.668 18.751 14.6143 18.376 15.4932C18.001 16.3721 17.4795 17.1455 16.8115 17.8135C16.1436 18.4814 15.3701 19.0029 14.4912 19.3779C13.6123 19.7529 12.666 19.9404 11.6523 19.9404ZM11.459 14.4033C11.6992 14.4033 11.8896 14.3418 12.0303 14.2188C12.1768 14.0957 12.2559 13.9463 12.2676 13.7705C12.2734 13.7529 12.2764 13.7354 12.2764 13.7178C12.2764 13.6943 12.2764 13.6768 12.2764 13.665C12.2881 13.4365 12.3701 13.2373 12.5225 13.0674C12.6748 12.8975 12.8975 12.7188 13.1904 12.5312C13.6182 12.2441 13.9609 11.9512 14.2188 11.6523C14.4824 11.3535 14.6143 10.9463 14.6143 10.4307C14.6143 9.94434 14.4824 9.53125 14.2188 9.19141C13.9551 8.85156 13.6035 8.59082 13.1641 8.40918C12.7305 8.22754 12.2559 8.13672 11.7402 8.13672C10.9844 8.13672 10.3604 8.28613 9.86816 8.58496C9.38184 8.88379 9.07129 9.23828 8.93652 9.64844C8.90723 9.72461 8.88379 9.80078 8.86621 9.87695C8.85449 9.94727 8.84863 10.0234 8.84863 10.1055C8.84863 10.3164 8.91895 10.4834 9.05957 10.6064C9.2002 10.7295 9.36133 10.791 9.54297 10.791C9.70117 10.791 9.83594 10.7588 9.94727 10.6943C10.0645 10.6299 10.1641 10.542 10.2461 10.4307L10.3867 10.2461C10.4863 10.0879 10.5977 9.95605 10.7207 9.85059C10.8496 9.73926 10.9873 9.6543 11.1338 9.5957C11.2861 9.53711 11.4502 9.50781 11.626 9.50781C11.9834 9.50781 12.2705 9.60449 12.4873 9.79785C12.71 9.98535 12.8213 10.2285 12.8213 10.5273C12.8213 10.8027 12.7275 11.0312 12.54 11.2129C12.3584 11.3945 12.0801 11.6143 11.7051 11.8721C11.3887 12.0889 11.1279 12.3232 10.9229 12.5752C10.7236 12.8271 10.624 13.1553 10.624 13.5596C10.624 13.5713 10.624 13.5859 10.624 13.6035C10.624 13.6211 10.624 13.6387 10.624 13.6562C10.624 14.1543 10.9023 14.4033 11.459 14.4033ZM11.4414 17.1016C11.7285 17.1016 11.9717 17.0107 12.1709 16.8291C12.3701 16.6475 12.4697 16.416 12.4697 16.1348C12.4697 15.8535 12.3701 15.6221 12.1709 15.4404C11.9717 15.2588 11.7285 15.168 11.4414 15.168C11.1543 15.168 10.9111 15.2617 10.7119 15.4492C10.5127 15.6309 10.4131 15.8594 10.4131 16.1348C10.4131 16.4102 10.5127 16.6416 10.7119 16.8291C10.917 17.0107 11.1602 17.1016 11.4414 17.1016Z" fill="black" fill-opacity="1"/>
</svg>
