<svg width="27" height="27" viewBox="0 0 27 27" fill="none" xmlns="http://www.w3.org/2000/svg">
<circle cx="17" cy="22" r="3" stroke="white" stroke-width="2"/>
<circle cx="10" cy="13" r="3" stroke="white" stroke-width="2"/>
<circle cx="17" cy="5" r="3" stroke="white" stroke-width="2"/>
<path d="M1 4C0.447715 4 0 4.44772 0 5C0 5.55228 0.447715 6 1 6V4ZM1 6H14V4H1V6Z" fill="white"/>
<path d="M26 12C26.5523 12 27 12.4477 27 13C27 13.5523 26.5523 14 26 14V12ZM26 14H13V12H26V14Z" fill="white"/>
<path d="M1 21C0.447715 21 0 21.4477 0 22C0 22.5523 0.447715 23 1 23V21ZM1 23H14V21H1V23Z" fill="white"/>
<path d="M2 14C1.44772 14 1 13.5523 1 13C1 12.4477 1.44772 12 2 12V14ZM7 14H2V12H7V14Z" fill="white"/>
<path d="M26 21C26.5523 21 27 21.4477 27 22C27 22.5523 26.5523 23 26 23V21ZM21 23H20V21H21V23ZM26 23H21V21H26V23Z" fill="white"/>
<path d="M26 4C26.5523 4 27 4.44772 27 5C27 5.55228 26.5523 6 26 6V4ZM21 6H20V4H21V6ZM26 6H21V4H26V6Z" fill="white"/>
</svg>
