<svg width="24" height="24" viewBox="0 0 20 15" fill="none" xmlns="http://www.w3.org/2000/svg">
<path d="M16.4605 3.34583H16.5031C16.6261 3.34583 16.7348 3.40258 16.8073 3.48927C18.606 5.33992 19.5502 9.35807 19.3406 12.0473C19.2822 12.793 19.1356 13.4487 18.8945 13.9437C18.6202 14.508 18.2245 14.8785 17.6948 14.9762C17.0202 15.1008 16.1768 14.7445 15.1632 13.712C15.0324 13.5796 14.8968 13.4456 14.7581 13.3084C14.2852 12.8434 13.787 12.3532 13.3662 11.762H6.00297C5.58051 12.3579 5.08238 12.8481 4.60789 13.3132C4.47075 13.4487 4.33518 13.5811 4.20592 13.712C3.19232 14.7445 2.34897 15.1008 1.67428 14.9762C1.14463 14.8785 0.747385 14.508 0.474674 13.9437C0.233491 13.4471 0.0868896 12.793 0.0285643 12.0473C-0.181092 9.34546 0.772606 5.30367 2.58542 3.46405C2.66266 3.38524 2.76355 3.34583 2.86601 3.34583V3.34425H2.91015C3.13242 3.03844 3.40828 2.79252 3.71882 2.60651C4.19016 2.32434 4.73873 2.18405 5.28415 2.18405C5.83115 2.18405 6.37972 2.32434 6.84948 2.60651C7.15844 2.79095 7.43431 3.03686 7.65342 3.34267H8.90032C8.80416 0.990743 9.45835 0.399607 10.4247 0.3334C10.7746 0.309755 11.1451 0.371233 11.5328 0.435864C12.2659 0.557244 13.0761 0.691234 13.6515 0.115863C13.806 -0.0386208 14.055 -0.0386208 14.2095 0.115863C14.364 0.270346 14.364 0.519411 14.2095 0.673894C13.3472 1.53459 12.3273 1.36592 11.4052 1.21301C11.0647 1.15626 10.7399 1.10266 10.4767 1.12C9.95491 1.15468 9.60811 1.58976 9.69008 3.34583H11.7189C11.9395 3.04001 12.217 2.79252 12.526 2.60809C12.9973 2.32592 13.5459 2.18562 14.0897 2.18562C14.6335 2.18562 15.1821 2.3275 15.6535 2.60809C15.9624 2.79252 16.2399 3.03844 16.4605 3.34583ZM14.3246 8.18841C14.6146 8.47846 14.6146 8.94664 14.3246 9.23669C14.0345 9.52674 13.5664 9.52674 13.2763 9.23669C12.9863 8.94664 12.9863 8.47846 13.2763 8.18841C13.5648 7.89993 14.0345 7.89993 14.3246 8.18841ZM15.9735 6.70978C16.2635 6.99983 16.2635 7.46801 15.9735 7.75806C15.6834 8.04811 15.2152 8.04811 14.9252 7.75806C14.6351 7.46801 14.6351 6.99983 14.9252 6.70978C15.2152 6.41973 15.6834 6.41973 15.9735 6.70978ZM12.6741 6.70978C12.9642 6.99983 12.9642 7.46801 12.6741 7.75806C12.3841 8.04811 11.9159 8.04811 11.6259 7.75806C11.3358 7.46801 11.3358 6.99983 11.6259 6.70978C11.9159 6.41973 12.3857 6.41973 12.6741 6.70978ZM14.3246 5.38879C14.6146 5.67884 14.6146 6.14702 14.3246 6.43707C14.0345 6.72712 13.5664 6.72712 13.2763 6.43707C12.9863 6.14702 12.9863 5.67884 13.2763 5.38879C13.5648 5.10032 14.0345 5.10032 14.3246 5.38879ZM4.23272 5.5212H5.52061V6.83431H6.83371V8.1222H5.52061V9.43531H4.23272V8.1222H2.91961V6.83431H4.23272V5.5212ZM16.3344 4.13558H16.2493V4.13401C16.1153 4.13401 15.9845 4.06622 15.912 3.94169C15.7433 3.6611 15.5132 3.44041 15.2483 3.28277C14.9031 3.07627 14.498 2.97381 14.0881 2.97381C13.6798 2.97381 13.2731 3.07627 12.9279 3.28277C12.671 3.43568 12.4471 3.64849 12.28 3.91647C12.2154 4.04573 12.0814 4.13401 11.9269 4.13401H7.44377V4.13243C7.30978 4.13243 7.17894 4.06465 7.10642 3.94011C6.93933 3.65952 6.70918 3.44041 6.44593 3.28277C6.09913 3.07469 5.69243 2.97065 5.28415 2.97065C4.87587 2.97065 4.46917 3.07469 4.12237 3.28277C3.86543 3.43726 3.64001 3.64849 3.47291 3.91647C3.40828 4.04573 3.27429 4.13401 3.11981 4.13401H3.03468C1.44887 5.87116 0.622852 9.51728 0.815168 11.989C0.865612 12.6385 0.986992 13.1981 1.18404 13.6016C1.34798 13.9374 1.55763 14.1549 1.81616 14.2022C2.23705 14.2795 2.83606 13.9831 3.64474 13.1602C3.77873 13.0247 3.91587 12.8891 4.05617 12.752C4.54168 12.2759 5.054 11.7715 5.44809 11.1819C5.5143 11.0574 5.64514 10.9738 5.79647 10.9738H13.5742V10.9754C13.7019 10.9754 13.8265 11.0369 13.9021 11.152C14.3025 11.7573 14.8211 12.268 15.3114 12.7504C15.4533 12.8891 15.592 13.0263 15.726 13.1634C16.5331 13.9863 17.1337 14.2826 17.5545 14.2054C17.8131 14.1581 18.0243 13.9405 18.1867 13.6048C18.3837 13.1997 18.5051 12.6416 18.5555 11.9922C18.7478 9.51728 17.9218 5.87116 16.3344 4.13558Z" fill="#000000" fill-opacity="1"/>
</svg>
