<svg width="24" height="24" viewBox="0 0 24 24" fill="none" xmlns="http://www.w3.org/2000/svg">
<path d="M20.3948 7.14551H20.4475C20.5998 7.14551 20.7346 7.21582 20.8245 7.32324C23.053 9.61621 24.2229 14.5947 23.9631 17.9268C23.8909 18.8506 23.7092 19.6631 23.4104 20.2764C23.0705 20.9756 22.5803 21.4346 21.9241 21.5557C21.0881 21.71 20.0432 21.2686 18.7873 19.9893C18.6252 19.8252 18.4573 19.6592 18.2854 19.4893C17.6995 18.9131 17.0823 18.3057 16.5608 17.5732H7.43773C6.9143 18.3115 6.29711 18.9189 5.70922 19.4951C5.5393 19.6631 5.37133 19.8271 5.21117 19.9893C3.95531 21.2686 2.91039 21.71 2.07445 21.5557C1.4182 21.4346 0.926016 20.9756 0.588126 20.2764C0.289298 19.6611 0.107657 18.8506 0.0353914 17.9268C-0.224374 14.5791 0.957266 9.57129 3.20336 7.29199C3.29906 7.19434 3.42406 7.14551 3.55102 7.14551V7.14355H3.6057C3.88109 6.76465 4.22289 6.45996 4.60766 6.22949C5.19164 5.87988 5.87133 5.70605 6.54711 5.70605C7.22484 5.70605 7.90453 5.87988 8.48656 6.22949C8.86938 6.45801 9.21117 6.7627 9.48266 7.1416H11.0276C10.9084 4.22754 11.719 3.49512 12.9162 3.41309C13.3498 3.38379 13.8088 3.45996 14.2893 3.54004C15.1975 3.69043 16.2014 3.85645 16.9143 3.14355C17.1057 2.95215 17.4143 2.95215 17.6057 3.14355C17.7971 3.33496 17.7971 3.64355 17.6057 3.83496C16.5373 4.90137 15.2737 4.69238 14.1311 4.50293C13.7092 4.43262 13.3069 4.36621 12.9807 4.3877C12.3342 4.43066 11.9045 4.96973 12.0061 7.14551H14.5198C14.7932 6.7666 15.137 6.45996 15.5198 6.23145C16.1037 5.88184 16.7834 5.70801 17.4573 5.70801C18.1311 5.70801 18.8108 5.88379 19.3948 6.23145C19.7776 6.45996 20.1213 6.76465 20.3948 7.14551ZM17.7483 13.1455C18.1077 13.5049 18.1077 14.085 17.7483 14.4443C17.3889 14.8037 16.8088 14.8037 16.4495 14.4443C16.0901 14.085 16.0901 13.5049 16.4495 13.1455C16.8069 12.7881 17.3889 12.7881 17.7483 13.1455ZM19.7912 11.3135C20.1506 11.6729 20.1506 12.2529 19.7912 12.6123C19.4319 12.9717 18.8518 12.9717 18.4924 12.6123C18.133 12.2529 18.133 11.6729 18.4924 11.3135C18.8518 10.9541 19.4319 10.9541 19.7912 11.3135ZM15.7034 11.3135C16.0627 11.6729 16.0627 12.2529 15.7034 12.6123C15.344 12.9717 14.7639 12.9717 14.4045 12.6123C14.0452 12.2529 14.0452 11.6729 14.4045 11.3135C14.7639 10.9541 15.3459 10.9541 15.7034 11.3135ZM17.7483 9.67676C18.1077 10.0361 18.1077 10.6162 17.7483 10.9756C17.3889 11.335 16.8088 11.335 16.4495 10.9756C16.0901 10.6162 16.0901 10.0361 16.4495 9.67676C16.8069 9.31933 17.3889 9.31933 17.7483 9.67676ZM5.24437 9.84082H6.84008V11.4678H8.46703V13.0635H6.84008V14.6904H5.24437V13.0635H3.61742V11.4678H5.24437V9.84082ZM20.2385 8.12402H20.133V8.12207C19.967 8.12207 19.8049 8.03809 19.7151 7.88379C19.5061 7.53613 19.2209 7.2627 18.8928 7.06738C18.4651 6.81152 17.9631 6.68457 17.4553 6.68457C16.9495 6.68457 16.4455 6.81152 16.0178 7.06738C15.6995 7.25684 15.4221 7.52051 15.2151 7.85254C15.135 8.0127 14.969 8.12207 14.7776 8.12207H9.22289V8.12012C9.05688 8.12012 8.89477 8.03613 8.80492 7.88184C8.59789 7.53418 8.31273 7.2627 7.98656 7.06738C7.55687 6.80957 7.05297 6.68066 6.54711 6.68066C6.04125 6.68066 5.53734 6.80957 5.10766 7.06738C4.7893 7.25879 4.51 7.52051 4.30297 7.85254C4.22289 8.0127 4.05688 8.12207 3.86547 8.12207H3.76C1.79516 10.2744 0.771719 14.792 1.01 17.8545C1.0725 18.6592 1.22289 19.3525 1.46703 19.8525C1.67016 20.2686 1.92992 20.5381 2.25023 20.5967C2.77172 20.6924 3.51391 20.3252 4.51586 19.3057C4.68188 19.1377 4.8518 18.9697 5.02562 18.7998C5.62719 18.21 6.26195 17.585 6.75023 16.8545C6.83227 16.7002 6.99438 16.5967 7.18188 16.5967H16.8186V16.5986C16.9768 16.5986 17.1311 16.6748 17.2248 16.8174C17.7209 17.5674 18.3635 18.2002 18.9709 18.7979C19.1467 18.9697 19.3186 19.1396 19.4846 19.3096C20.4846 20.3291 21.2287 20.6963 21.7502 20.6006C22.0705 20.542 22.3323 20.2725 22.5334 19.8564C22.7776 19.3545 22.928 18.6631 22.9905 17.8584C23.2287 14.792 22.2053 10.2744 20.2385 8.12402Z" fill="#EBEBF5" fill-opacity="0.75"/>
</svg>
