<svg width="20" height="20" viewBox="0 0 20 20" fill="none" xmlns="http://www.w3.org/2000/svg">
<path d="M9.23047 19.1904C8.86719 19.1904 8.55078 19.0879 8.28125 18.8828C8.01758 18.6777 7.84473 18.3994 7.7627 18.0479L7.40234 16.4922L7.16504 16.4131L5.82031 17.2393C5.51562 17.4326 5.19336 17.5059 4.85352 17.459C4.51953 17.418 4.22363 17.2686 3.96582 17.0107L2.73535 15.7891C2.47168 15.5254 2.31934 15.2266 2.27832 14.8926C2.2373 14.5586 2.31348 14.2393 2.50684 13.9346L3.35059 12.5898L3.27148 12.3701L1.71582 12.0098C1.37012 11.9277 1.0918 11.752 0.880859 11.4824C0.675781 11.2129 0.573242 10.8994 0.573242 10.542V8.81055C0.573242 8.45312 0.675781 8.14258 0.880859 7.87891C1.08594 7.60938 1.36426 7.43066 1.71582 7.34277L3.25391 6.97363L3.3418 6.73633L2.49805 5.3916C2.30469 5.09277 2.22852 4.77637 2.26953 4.44238C2.31055 4.1084 2.46289 3.80957 2.72656 3.5459L3.95703 2.31543C4.21484 2.05762 4.51074 1.9082 4.84473 1.86719C5.17871 1.82031 5.49805 1.89063 5.80273 2.07812L7.15625 2.91309L7.40234 2.81641L7.7627 1.26074C7.84473 0.915039 8.01758 0.639648 8.28125 0.43457C8.55078 0.223633 8.86719 0.118164 9.23047 0.118164H11.0146C11.3779 0.118164 11.6914 0.223633 11.9551 0.43457C12.2188 0.639648 12.3916 0.915039 12.4736 1.26074L12.834 2.81641L13.0801 2.91309L14.4336 2.07812C14.7383 1.89063 15.0576 1.82031 15.3916 1.86719C15.7314 1.9082 16.0273 2.05762 16.2793 2.31543L17.5098 3.5459C17.7676 3.80957 17.917 4.1084 17.958 4.44238C18.0049 4.77637 17.9316 5.09277 17.7383 5.3916L16.8945 6.73633L16.9912 6.97363L18.5205 7.34277C18.8662 7.4248 19.1416 7.60059 19.3467 7.87012C19.5576 8.13965 19.6631 8.45312 19.6631 8.81055V10.542C19.6631 10.8994 19.5576 11.2129 19.3467 11.4824C19.1416 11.7461 18.8662 11.9219 18.5205 12.0098L16.9736 12.3701L16.8857 12.5898L17.7295 13.9346C17.9229 14.2393 17.9961 14.5586 17.9492 14.8926C17.9082 15.2266 17.7588 15.5254 17.501 15.7891L16.2705 17.0107C16.0127 17.2686 15.7139 17.418 15.374 17.459C15.04 17.5059 14.7207 17.4326 14.416 17.2393L13.0625 16.4131L12.834 16.4922L12.4736 18.0479C12.3916 18.3994 12.2188 18.6777 11.9551 18.8828C11.6914 19.0879 11.3779 19.1904 11.0146 19.1904H9.23047ZM9.4502 17.5996H10.7949C10.9355 17.5996 11.0146 17.5322 11.0322 17.3975L11.5596 15.2354C11.8525 15.1709 12.125 15.0859 12.377 14.9805C12.6289 14.8691 12.8633 14.7461 13.0801 14.6113L14.9697 15.7715C15.0811 15.8477 15.1895 15.8359 15.2949 15.7363L16.2266 14.7959C16.3203 14.7139 16.3291 14.6084 16.2529 14.4795L15.0928 12.5986C15.2158 12.3877 15.3301 12.1533 15.4355 11.8955C15.5469 11.6377 15.6348 11.3711 15.6992 11.0957L17.8701 10.5771C18.0049 10.5537 18.0723 10.4717 18.0723 10.3311V9.0127C18.0723 8.87793 18.0049 8.7959 17.8701 8.7666L15.708 8.24805C15.6377 7.95508 15.5439 7.67676 15.4268 7.41309C15.3154 7.14941 15.207 6.92383 15.1016 6.73633L16.2617 4.84668C16.3438 4.72363 16.335 4.6123 16.2354 4.5127L15.3037 3.59863C15.2041 3.50488 15.0928 3.49023 14.9697 3.55469L13.0801 4.70605C12.8633 4.58301 12.626 4.46875 12.3682 4.36328C12.1162 4.25195 11.8467 4.16113 11.5596 4.09082L11.0322 1.91113C11.0146 1.77637 10.9355 1.70898 10.7949 1.70898H9.4502C9.30371 1.70898 9.21875 1.77637 9.19531 1.91113L8.68555 4.07324C8.4043 4.14355 8.12598 4.2373 7.85059 4.35449C7.58105 4.46582 7.34668 4.58008 7.14746 4.69727L5.25781 3.55469C5.14062 3.49023 5.03223 3.50195 4.93262 3.58984L3.99219 4.5127C3.89844 4.6123 3.88965 4.72363 3.96582 4.84668L5.12598 6.73633C5.02637 6.92383 4.91797 7.14941 4.80078 7.41309C4.68359 7.67676 4.59277 7.95508 4.52832 8.24805L2.36621 8.7666C2.23145 8.7959 2.16406 8.87793 2.16406 9.0127V10.3311C2.16406 10.4717 2.23145 10.5537 2.36621 10.5771L4.52832 11.0869C4.59863 11.3682 4.68945 11.6377 4.80078 11.8955C4.91211 12.1475 5.02637 12.3818 5.14355 12.5986L3.97461 14.4883C3.9043 14.6113 3.91309 14.7168 4.00098 14.8047L4.94141 15.7363C5.04688 15.8359 5.15234 15.8506 5.25781 15.7803L7.15625 14.6113C7.37305 14.7461 7.61035 14.8691 7.86816 14.9805C8.13184 15.0859 8.40137 15.1709 8.67676 15.2354L9.19531 17.3975C9.21875 17.5322 9.30371 17.5996 9.4502 17.5996ZM10.1182 12.9941C9.50879 12.9941 8.94922 12.8447 8.43945 12.5459C7.93555 12.2412 7.53125 11.8369 7.22656 11.333C6.92773 10.8291 6.77832 10.2695 6.77832 9.6543C6.77832 9.04492 6.92773 8.48828 7.22656 7.98438C7.53125 7.48047 7.93555 7.0791 8.43945 6.78027C8.94922 6.48145 9.50879 6.33203 10.1182 6.33203C10.7334 6.33203 11.293 6.48145 11.7969 6.78027C12.3008 7.0791 12.7021 7.48047 13.001 7.98438C13.2998 8.48828 13.4492 9.04492 13.4492 9.6543C13.4492 10.2637 13.2998 10.8232 13.001 11.333C12.7021 11.8428 12.3008 12.2471 11.7969 12.5459C11.293 12.8447 10.7334 12.9941 10.1182 12.9941ZM10.1182 11.4824C10.4463 11.4824 10.748 11.4004 11.0234 11.2363C11.2988 11.0664 11.5156 10.8438 11.6738 10.5684C11.8379 10.293 11.9199 9.98828 11.9199 9.6543C11.9199 9.32031 11.8379 9.01855 11.6738 8.74902C11.5156 8.47363 11.2988 8.25391 11.0234 8.08984C10.748 7.92578 10.4463 7.84375 10.1182 7.84375C9.78418 7.84375 9.47949 7.92578 9.2041 8.08984C8.92871 8.25391 8.70898 8.47363 8.54492 8.74902C8.38086 9.01855 8.29883 9.32031 8.29883 9.6543C8.29883 9.99414 8.38086 10.3018 8.54492 10.5771C8.70898 10.8525 8.92871 11.0723 9.2041 11.2363C9.47949 11.4004 9.78418 11.4824 10.1182 11.4824Z" fill="#F4BF4F" fill-opacity="0.6"/>
</svg>
