<svg width="21" height="21" viewBox="0 0 19 21" fill="none" xmlns="http://www.w3.org/2000/svg">
<path d="M3.24121 12.6758H4.97266V17.9492C4.97266 18.2891 5.06934 18.5527 5.2627 18.7402C5.45605 18.9336 5.73438 19.0303 6.09766 19.0303H15.502C15.8652 19.0303 16.1436 18.9336 16.3369 18.7402C16.5303 18.5527 16.627 18.2891 16.627 17.9492V3.35938C16.627 3.01367 16.5303 2.74707 16.3369 2.55957C16.1436 2.36621 15.8652 2.26953 15.502 2.26953H6.09766C5.73438 2.26953 5.45605 2.36621 5.2627 2.55957C5.06934 2.74707 4.97266 3.01367 4.97266 3.35938V8.63281H3.24121V3.06934C3.24121 2.30762 3.47852 1.69824 3.95312 1.24121C4.43359 0.77832 5.06934 0.546875 5.86035 0.546875H15.7393C16.5303 0.546875 17.1631 0.77832 17.6377 1.24121C18.1123 1.69824 18.3496 2.30762 18.3496 3.06934V18.2393C18.3496 18.9951 18.1123 19.6016 17.6377 20.0586C17.1631 20.5215 16.5303 20.7529 15.7393 20.7529H5.86035C5.06934 20.7529 4.43359 20.5215 3.95312 20.0586C3.47852 19.6016 3.24121 18.9951 3.24121 18.2393V12.6758ZM1.43066 11.3838C1.20215 11.3838 1.02051 11.3105 0.885742 11.1641C0.750977 11.0176 0.683594 10.8447 0.683594 10.6455C0.683594 10.4463 0.750977 10.2734 0.885742 10.127C1.02051 9.97461 1.20215 9.89844 1.43066 9.89844H7.20508L8.90137 9.98633L7.16992 8.46582L6.68652 7.97363C6.62207 7.90332 6.56934 7.82422 6.52832 7.73633C6.4873 7.64258 6.4668 7.54004 6.4668 7.42871C6.4668 7.22363 6.53418 7.05664 6.66895 6.92773C6.80371 6.79297 6.9707 6.72559 7.16992 6.72559C7.38086 6.72559 7.55957 6.79883 7.70605 6.94531L10.8174 10.0391C11.0049 10.2266 11.0986 10.4287 11.0986 10.6455C11.0986 10.8564 11.0049 11.0586 10.8174 11.252L7.70605 14.3457C7.55957 14.4922 7.38086 14.5654 7.16992 14.5654C6.9707 14.5654 6.80371 14.501 6.66895 14.3721C6.53418 14.2373 6.4668 14.0674 6.4668 13.8623C6.4668 13.7568 6.4873 13.6572 6.52832 13.5635C6.56934 13.4697 6.62207 13.3877 6.68652 13.3174L7.16992 12.8252L8.90137 11.2959L7.20508 11.3838H1.43066Z" fill="#F4BF4F" fill-opacity="0.7"/>
</svg>
