<svg width="24" height="24" viewBox="0 0 24 24" fill="none" xmlns="http://www.w3.org/2000/svg">
<path d="M11.9756 12.8477C12.6846 12.8477 13.3291 12.6602 13.9092 12.2852C14.4893 11.9043 14.9521 11.3975 15.2979 10.7646C15.6436 10.1318 15.8164 9.43164 15.8164 8.66406C15.8164 7.9082 15.6436 7.22266 15.2979 6.60742C14.958 5.99219 14.4951 5.50293 13.9092 5.13965C13.3291 4.77637 12.6846 4.59473 11.9756 4.59473C11.2725 4.59473 10.6279 4.7793 10.042 5.14844C9.45605 5.51758 8.99023 6.0127 8.64453 6.63379C8.29883 7.24902 8.12598 7.93164 8.12598 8.68164C8.13184 9.44336 8.30762 10.1406 8.65332 10.7734C8.99902 11.4004 9.46191 11.9043 10.042 12.2852C10.6221 12.6602 11.2666 12.8477 11.9756 12.8477ZM11.9756 11.3184C11.5713 11.3184 11.1963 11.2041 10.8506 10.9756C10.5107 10.7412 10.2383 10.4248 10.0332 10.0264C9.82812 9.62793 9.72559 9.17969 9.72559 8.68164C9.72559 8.19531 9.82812 7.75879 10.0332 7.37207C10.2383 6.98535 10.5107 6.68066 10.8506 6.45801C11.1904 6.22949 11.5654 6.11523 11.9756 6.11523C12.3857 6.11523 12.7607 6.22656 13.1006 6.44922C13.4404 6.67187 13.7129 6.97656 13.918 7.36328C14.123 7.74414 14.2256 8.17773 14.2256 8.66406C14.2256 9.16211 14.123 9.61328 13.918 10.0176C13.7129 10.416 13.4404 10.7324 13.1006 10.9668C12.7607 11.2012 12.3857 11.3184 11.9756 11.3184ZM6.49121 21.0127H14.1377C14.0674 20.7314 14.0322 20.4092 14.0322 20.0459V19.4922H6.20117C6.0957 19.4922 6.01953 19.4746 5.97266 19.4395C5.93164 19.4043 5.91113 19.3457 5.91113 19.2637C5.91113 18.9297 6.0459 18.543 6.31543 18.1035C6.58496 17.6641 6.97461 17.2393 7.48438 16.8291C8 16.4131 8.63281 16.0703 9.38281 15.8008C10.1387 15.5254 11.0029 15.3877 11.9756 15.3877C12.4326 15.3877 12.8691 15.4258 13.2852 15.502C13.7012 15.5781 14.0879 15.6807 14.4453 15.8096C14.6621 15.2705 15.043 14.8691 15.5879 14.6055C15.0723 14.377 14.5098 14.1982 13.9004 14.0693C13.2969 13.9346 12.6553 13.8672 11.9756 13.8672C10.792 13.8672 9.72559 14.0459 8.77637 14.4033C7.82715 14.7549 7.0127 15.2148 6.33301 15.7832C5.65918 16.3516 5.14062 16.9639 4.77734 17.6201C4.41992 18.2764 4.24121 18.9033 4.24121 19.501C4.24121 20.5088 4.99121 21.0127 6.49121 21.0127ZM15.2891 20.0723C15.2891 20.6348 15.4062 21.1064 15.6406 21.4873C15.875 21.8682 16.2441 22.2314 16.748 22.5771C17.252 22.9287 17.9141 23.333 18.7344 23.79C18.8398 23.8545 18.9658 23.8896 19.1123 23.8955C19.2646 23.9014 19.4082 23.8662 19.543 23.79C20.3633 23.3271 21.0254 22.9229 21.5293 22.5771C22.0332 22.2314 22.4023 21.8682 22.6367 21.4873C22.8711 21.1064 22.9883 20.6348 22.9883 20.0723V16.8994C22.9883 16.6182 22.9297 16.3867 22.8125 16.2051C22.7012 16.0234 22.5049 15.8711 22.2236 15.748C22.1006 15.7012 21.9219 15.6367 21.6875 15.5547C21.4531 15.4668 21.1982 15.376 20.9229 15.2822C20.6533 15.1826 20.4043 15.0947 20.1758 15.0186C19.9473 14.9365 19.7744 14.8721 19.6572 14.8252C19.4873 14.7725 19.3086 14.749 19.1211 14.7549C18.9336 14.7549 18.7461 14.79 18.5586 14.8604C18.459 14.8955 18.2949 14.9512 18.0664 15.0273C17.8438 15.1035 17.5977 15.1885 17.3281 15.2822C17.0645 15.376 16.8154 15.4668 16.5811 15.5547C16.3467 15.6367 16.1709 15.7012 16.0537 15.748C15.7725 15.8711 15.5732 16.0234 15.4561 16.2051C15.3447 16.3867 15.2891 16.6182 15.2891 16.8994V20.0723ZM18.6289 21.7773C18.541 21.7773 18.4502 21.7598 18.3564 21.7246C18.2627 21.6895 18.1865 21.6367 18.1279 21.5664L16.6426 19.9668C16.5898 19.8965 16.5488 19.8203 16.5195 19.7383C16.4902 19.6621 16.4756 19.5859 16.4756 19.5098C16.4756 19.3223 16.5371 19.1699 16.6602 19.0527C16.7832 18.9414 16.9297 18.8857 17.0996 18.8857C17.1992 18.8857 17.2871 18.9033 17.3633 18.9385C17.4453 18.9736 17.5127 19.0205 17.5654 19.0791L18.585 20.1953L20.6592 17.3301C20.7939 17.1426 20.9697 17.0488 21.1865 17.0488C21.3564 17.0488 21.5029 17.1104 21.626 17.2334C21.7549 17.3506 21.8193 17.4971 21.8193 17.6729C21.8193 17.7256 21.8076 17.7842 21.7842 17.8486C21.7666 17.9131 21.7344 17.9775 21.6875 18.042L19.1387 21.54C19.0273 21.6982 18.8574 21.7773 18.6289 21.7773Z" fill="black" fill-opacity="1"/>
</svg>
