<svg width="171" height="30" viewBox="0 0 171 30" fill="none" xmlns="http://www.w3.org/2000/svg">
<mask id="path-1-inside-1_2334_298" fill="white">
<path d="M40.1857 16.8187C40.918 16.8187 41.5141 17.0362 41.9742 17.4713C42.4342 17.9063 42.7205 18.6085 42.8332 19.578C42.8613 19.6402 42.8426 19.6712 42.7768 19.6712H33.539C33.3606 19.6712 33.2198 19.6961 33.1165 19.7458C33.0226 19.7831 32.9522 19.8328 32.9053 19.895C32.802 19.9944 32.7504 20.2243 32.7504 20.5848V26.2152C32.7504 26.5757 32.802 26.8056 32.9053 26.9051C32.9522 26.9672 33.0226 27.0231 33.1165 27.0729C33.2198 27.1226 33.3606 27.1474 33.539 27.1474H42.7768C42.8238 27.1474 42.8473 27.1723 42.8473 27.222C42.7346 28.1915 42.4436 28.9 41.9742 29.3474C41.5141 29.7824 40.918 30 40.1857 30H33.1869C32.3044 30 31.6191 29.7017 31.1309 29.105C30.6521 28.5084 30.4127 27.6073 30.4127 26.4017V20.417C30.4127 19.2113 30.6474 18.3102 31.1168 17.7136C31.5862 17.117 32.2763 16.8187 33.1869 16.8187H40.1857Z"/>
<path d="M45.672 17.6018C45.672 17.3905 45.7237 17.2165 45.827 17.0797C45.9302 16.943 46.0617 16.8746 46.2213 16.8746H47.4605C47.5262 16.8746 47.5919 16.8871 47.6576 16.9119C47.7327 16.9368 47.7985 16.9927 47.8548 17.0797C47.9205 17.1667 47.9627 17.26 47.9815 17.3594C48.0003 17.4464 48.0097 17.5272 48.0097 17.6018V21.9831H55.2902V17.6018C55.2902 17.3905 55.3418 17.2165 55.4451 17.0797C55.5483 16.943 55.6798 16.8746 55.8394 16.8746H57.0786C57.1443 16.8746 57.21 16.8933 57.2757 16.9306C57.3508 16.9554 57.4213 17.0052 57.487 17.0797C57.5902 17.2537 57.6419 17.4278 57.6419 17.6018V29.1983C57.6419 29.422 57.5855 29.6022 57.4729 29.7389C57.3696 29.8632 57.2382 29.9254 57.0786 29.9254H55.8394C55.6798 29.9254 55.5483 29.857 55.4451 29.7203C55.3418 29.5836 55.2902 29.4096 55.2902 29.1983V24.8169H48.0097V29.1983C48.0097 29.2728 48.0003 29.3598 47.9815 29.4593C47.9627 29.5463 47.9205 29.6333 47.8548 29.7203C47.7985 29.8073 47.7327 29.8632 47.6576 29.8881C47.5919 29.9129 47.5262 29.9254 47.4605 29.9254H46.2213C46.0617 29.9254 45.9302 29.857 45.827 29.7203C45.7237 29.5836 45.672 29.4096 45.672 29.1983V17.6018Z"/>
<path d="M69.1768 16.8746C70.0593 16.8746 70.7305 17.1854 71.1905 17.8068C71.66 18.4159 71.8947 19.3046 71.8947 20.4729V23.0644C71.8947 23.6735 71.8383 24.1893 71.7257 24.6119C71.6224 25.022 71.4581 25.3638 71.2328 25.6373C71.0169 25.9107 70.7446 26.122 70.416 26.2712C70.0874 26.4203 69.7025 26.526 69.2613 26.5881C69.2331 26.5881 69.2144 26.6068 69.205 26.6441C69.1956 26.6689 69.2003 26.6938 69.219 26.7186C69.3693 26.9051 69.557 27.1412 69.7823 27.4271C70.0076 27.7005 70.2377 27.9864 70.4724 28.2847C70.7071 28.583 70.9277 28.8689 71.1342 29.1423C71.3501 29.4158 71.5191 29.6333 71.6412 29.7949C71.66 29.8197 71.66 29.8508 71.6412 29.8881C71.6318 29.9129 71.6177 29.9254 71.5989 29.9254H68.4023C68.3741 29.9254 68.36 29.9192 68.36 29.9067C67.9563 29.3847 67.5245 28.8316 67.0645 28.2474C66.6045 27.6508 66.1585 27.0791 65.7267 26.5322C65.2948 25.9729 64.8958 25.4633 64.5297 25.0034C64.1729 24.5435 63.8913 24.1831 63.6848 23.922C63.666 23.8972 63.6613 23.8723 63.6707 23.8475C63.6801 23.8102 63.6988 23.7915 63.727 23.7915H68.8247C69.1064 23.7915 69.2942 23.7294 69.388 23.6051C69.4913 23.4808 69.5429 23.2322 69.5429 22.8593V20.6594C69.5429 20.4356 69.5289 20.2741 69.5007 20.1746C69.4725 20.0628 69.4397 19.982 69.4021 19.9322C69.3646 19.8701 69.3035 19.8204 69.219 19.7831C69.1346 19.7458 69.0031 19.7272 68.8247 19.7272H60.2487C60.2112 19.7272 60.1924 19.7023 60.1924 19.6526V17.6018C60.1924 17.3905 60.244 17.2165 60.3473 17.0797C60.4506 16.943 60.582 16.8746 60.7416 16.8746H69.1768Z"/>
<path d="M75.2308 20.417C75.2308 19.2113 75.4655 18.3102 75.9349 17.7136C76.4043 17.117 77.0943 16.8187 78.005 16.8187H84.9334C85.8159 16.8187 86.4965 17.117 86.9753 17.7136C87.4541 18.3102 87.6935 19.2113 87.6935 20.417V26.4017C87.6935 27.57 87.4541 28.4649 86.9753 29.0864C86.4965 29.6954 85.8159 30 84.9334 30H78.005C77.1225 30 76.4372 29.7017 75.949 29.105C75.4702 28.5084 75.2308 27.6073 75.2308 26.4017V20.417ZM77.5684 26.2152C77.5684 26.5757 77.6201 26.8056 77.7233 26.9051C77.7703 26.9672 77.8407 27.0231 77.9346 27.0729C78.0378 27.1226 78.1787 27.1474 78.357 27.1474H84.5813C84.7597 27.1474 84.8958 27.1288 84.9897 27.0915C85.093 27.0418 85.1681 26.9859 85.215 26.9237C85.2526 26.8616 85.2855 26.7808 85.3136 26.6813C85.3418 26.5819 85.3559 26.4265 85.3559 26.2152V20.5848C85.3559 20.2119 85.2948 19.9695 85.1728 19.8577C85.0508 19.7334 84.8536 19.6712 84.5813 19.6712H78.357C78.1787 19.6712 78.0378 19.6961 77.9346 19.7458C77.8407 19.7831 77.7703 19.8328 77.7233 19.895C77.6201 19.9944 77.5684 20.2243 77.5684 20.5848V26.2152Z"/>
<path d="M93.9773 16.8746C94.1088 16.8746 94.212 16.9119 94.2871 16.9865C94.3622 17.0487 94.4233 17.1108 94.4702 17.173C94.4796 17.173 94.489 17.1792 94.4984 17.1916L101.624 26.0474V17.6018C101.624 17.3905 101.676 17.2165 101.779 17.0797C101.882 16.943 102.014 16.8746 102.173 16.8746H103.412C103.572 16.8746 103.703 16.943 103.807 17.0797C103.919 17.2165 103.976 17.3905 103.976 17.6018V29.1983C103.976 29.2853 103.966 29.3785 103.947 29.4779C103.929 29.5649 103.886 29.6457 103.821 29.7203C103.764 29.8073 103.699 29.8632 103.624 29.8881C103.549 29.9129 103.478 29.9254 103.412 29.9254H101.877C101.746 29.9254 101.643 29.8943 101.568 29.8322C101.493 29.7576 101.431 29.6954 101.385 29.6457L101.356 29.6084L94.2167 20.7526V29.1983C94.2167 29.2728 94.2073 29.3598 94.1886 29.4593C94.1698 29.5463 94.1275 29.6333 94.0618 29.7203C94.0055 29.8073 93.9398 29.8632 93.8647 29.8881C93.799 29.9129 93.7332 29.9254 93.6675 29.9254H92.4283C92.2687 29.9254 92.1373 29.857 92.034 29.7203C91.9307 29.5836 91.8791 29.4096 91.8791 29.1983V17.6018C91.8791 17.3905 91.9307 17.2165 92.034 17.0797C92.1373 16.943 92.2687 16.8746 92.4283 16.8746H93.9773Z"/>
<path d="M110.583 16.8746C110.648 16.8746 110.714 16.8871 110.78 16.9119C110.855 16.9368 110.921 16.9927 110.977 17.0797C111.043 17.1667 111.085 17.26 111.104 17.3594C111.122 17.4464 111.132 17.5272 111.132 17.6018V29.1983C111.132 29.2728 111.122 29.3598 111.104 29.4593C111.085 29.5463 111.043 29.6333 110.977 29.7203C110.921 29.8073 110.855 29.8632 110.78 29.8881C110.714 29.9129 110.648 29.9254 110.583 29.9254H109.343C109.184 29.9254 109.052 29.857 108.949 29.7203C108.846 29.5836 108.794 29.4096 108.794 29.1983V17.6018C108.794 17.3905 108.846 17.2165 108.949 17.0797C109.052 16.943 109.184 16.8746 109.343 16.8746H110.583Z"/>
<path d="M125.119 16.8187C125.851 16.8187 126.447 17.0362 126.907 17.4713C127.367 17.9063 127.653 18.6085 127.766 19.578C127.794 19.6402 127.776 19.6712 127.71 19.6712H118.472C118.294 19.6712 118.153 19.6961 118.049 19.7458C117.956 19.7831 117.885 19.8328 117.838 19.895C117.735 19.9944 117.683 20.2243 117.683 20.5848V26.2152C117.683 26.5757 117.735 26.8056 117.838 26.9051C117.885 26.9672 117.956 27.0231 118.049 27.0729C118.153 27.1226 118.294 27.1474 118.472 27.1474H127.71C127.757 27.1474 127.78 27.1723 127.78 27.222C127.668 28.1915 127.377 28.9 126.907 29.3474C126.447 29.7824 125.851 30 125.119 30H118.12C117.237 30 116.552 29.7017 116.064 29.105C115.585 28.5084 115.346 27.6073 115.346 26.4017V20.417C115.346 19.2113 115.58 18.3102 116.05 17.7136C116.519 17.117 117.209 16.8187 118.12 16.8187H125.119Z"/>
<path d="M130.436 17.6018C130.436 17.4278 130.488 17.2537 130.591 17.0797C130.657 17.0052 130.722 16.9554 130.788 16.9306C130.863 16.8933 130.934 16.8746 130.999 16.8746H132.239C132.304 16.8746 132.37 16.8871 132.436 16.9119C132.511 16.9368 132.576 16.9927 132.633 17.0797C132.699 17.1667 132.741 17.26 132.76 17.3594C132.778 17.4464 132.788 17.5272 132.788 17.6018V26.1593C132.788 26.3706 132.802 26.5322 132.83 26.6441C132.858 26.7559 132.891 26.8367 132.929 26.8864C132.975 26.9361 133.037 26.9796 133.112 27.0169C133.196 27.0542 133.323 27.0729 133.492 27.0729H141.786C141.946 27.0729 142.077 27.1412 142.181 27.2779C142.284 27.4147 142.335 27.5887 142.335 27.8V29.1983C142.335 29.2728 142.321 29.3598 142.293 29.4593C142.274 29.5463 142.237 29.6333 142.181 29.7203C142.115 29.8073 142.044 29.8632 141.969 29.8881C141.904 29.9129 141.843 29.9254 141.786 29.9254H133.154C132.271 29.9254 131.595 29.6209 131.126 29.0118C130.666 28.3904 130.436 27.4955 130.436 26.3271V17.6018Z"/>
<path d="M144.787 27.9864C144.787 27.8497 144.791 27.7751 144.801 27.7627C144.801 27.6011 144.838 27.452 144.913 27.3152C144.979 27.2282 145.04 27.1661 145.096 27.1288C145.153 27.0915 145.228 27.0729 145.322 27.0729H155.602C155.724 27.0729 155.836 27.1164 155.94 27.2034C156.052 27.2904 156.118 27.4209 156.137 27.5949C156.146 27.6073 156.151 27.6757 156.151 27.8V29.1983C156.151 29.2728 156.142 29.3598 156.123 29.4593C156.104 29.5463 156.066 29.6333 156.01 29.7203L155.968 29.7762C155.911 29.8384 155.85 29.8819 155.785 29.9067C155.719 29.9192 155.658 29.9254 155.602 29.9254H145.336C145.204 29.9254 145.092 29.8819 144.998 29.7949C144.988 29.7824 144.979 29.7762 144.97 29.7762C144.96 29.7638 144.951 29.7452 144.942 29.7203C144.885 29.6457 144.843 29.5649 144.815 29.4779C144.796 29.3785 144.787 29.2915 144.787 29.2169V27.9864ZM144.801 17.5458C144.81 17.4837 144.819 17.4153 144.829 17.3407C144.848 17.2537 144.88 17.1792 144.927 17.117L144.998 17.0424C145.064 16.9679 145.134 16.9181 145.209 16.8933C145.284 16.8684 145.35 16.8622 145.406 16.8746H155.545C155.649 16.8746 155.733 16.8995 155.799 16.9492C155.874 17.0114 155.93 17.0735 155.968 17.1357C156.015 17.1854 156.048 17.2724 156.066 17.3967C156.076 17.4588 156.08 17.5085 156.08 17.5458C156.09 17.5707 156.095 17.5893 156.095 17.6018V19.0001C156.095 19.0871 156.085 19.1803 156.066 19.2797C156.048 19.3667 156.005 19.4537 155.94 19.5407C155.874 19.6153 155.804 19.665 155.728 19.6899C155.663 19.7147 155.602 19.7272 155.545 19.7272H145.336C145.289 19.7272 145.233 19.7209 145.167 19.7085C145.11 19.6961 145.059 19.6588 145.012 19.5967C144.993 19.5842 144.979 19.578 144.97 19.578C144.97 19.5656 144.96 19.5532 144.942 19.5407C144.876 19.4537 144.834 19.3667 144.815 19.2797C144.796 19.1803 144.787 19.0933 144.787 19.0187V17.7696C144.787 17.7323 144.787 17.695 144.787 17.6577C144.796 17.6204 144.801 17.5831 144.801 17.5458ZM144.787 22.8407L144.815 22.617C144.815 22.4802 144.857 22.3435 144.942 22.2068L145.012 22.1322C145.078 22.0577 145.148 22.0141 145.223 22.0017C145.298 21.9769 145.369 21.9706 145.434 21.9831H155.419C155.466 21.9831 155.517 21.9893 155.574 22.0017C155.639 22.0141 155.696 22.0514 155.743 22.1136C155.789 22.1384 155.832 22.1944 155.869 22.2814C155.907 22.3684 155.93 22.443 155.94 22.5051C155.949 22.5175 155.954 22.5859 155.954 22.7102V24.0898C155.954 24.3136 155.902 24.4938 155.799 24.6305C155.705 24.7548 155.574 24.8169 155.405 24.8169H145.336C145.289 24.8169 145.233 24.8107 145.167 24.7983C145.11 24.7859 145.054 24.7486 144.998 24.6864C144.988 24.674 144.979 24.6678 144.97 24.6678C144.96 24.6554 144.951 24.6367 144.942 24.6119C144.848 24.5124 144.796 24.3819 144.787 24.2203V22.8407Z"/>
<path d="M168.916 16.7441C169.207 16.7441 169.479 16.8187 169.733 16.9679C169.986 17.1046 170.207 17.2972 170.394 17.5458C170.582 17.7944 170.728 18.0865 170.831 18.4221C170.944 18.7577 171 19.1181 171 19.5034V19.5221C171 19.5718 170.981 19.5967 170.944 19.5967H161.959C161.762 19.5967 161.607 19.6215 161.495 19.6712C161.382 19.721 161.302 19.7769 161.255 19.839C161.208 19.9012 161.166 19.9944 161.128 20.1187C161.1 20.2305 161.086 20.3921 161.086 20.6034C161.086 20.9887 161.147 21.2622 161.269 21.4238C161.326 21.5108 161.41 21.5853 161.523 21.6475C161.635 21.6972 161.8 21.7345 162.016 21.7593L167.944 22.2068C168.883 22.2689 169.625 22.617 170.169 23.2509C170.723 23.8723 171 24.8294 171 26.122C171 27.4644 170.728 28.4339 170.183 29.0305C169.648 29.6271 168.892 29.9254 167.916 29.9254H160.889C160.607 29.9254 160.34 29.857 160.086 29.7203C159.833 29.5711 159.608 29.3785 159.41 29.1423C159.223 28.8937 159.072 28.6017 158.96 28.2661C158.847 27.9305 158.786 27.5762 158.777 27.2034C158.777 27.1537 158.795 27.1226 158.833 27.1102H159.354C159.589 27.1102 159.889 27.1102 160.255 27.1102C160.631 27.1102 161.039 27.1102 161.48 27.1102C161.922 27.0977 162.382 27.0915 162.86 27.0915C163.349 27.0915 163.827 27.0915 164.297 27.0915C164.86 27.0915 165.428 27.0915 166.001 27.0915C166.583 27.0915 167.184 27.0853 167.803 27.0729C168.104 27.0729 168.324 27.0107 168.465 26.8864C168.606 26.7497 168.676 26.4763 168.676 26.0661C168.676 25.6808 168.62 25.4011 168.507 25.2271C168.451 25.1525 168.367 25.0842 168.254 25.022C168.141 24.9599 167.977 24.9226 167.761 24.9102L161.832 24.4627C160.884 24.3881 160.138 24.0401 159.593 23.4187C159.049 22.7972 158.777 21.8339 158.777 20.5289C158.777 19.1989 159.049 18.2357 159.593 17.639C160.138 17.0424 160.894 16.7441 161.861 16.7441H168.916Z"/>
</mask>
<path d="M40.1857 16.8187C40.918 16.8187 41.5141 17.0362 41.9742 17.4713C42.4342 17.9063 42.7205 18.6085 42.8332 19.578C42.8613 19.6402 42.8426 19.6712 42.7768 19.6712H33.539C33.3606 19.6712 33.2198 19.6961 33.1165 19.7458C33.0226 19.7831 32.9522 19.8328 32.9053 19.895C32.802 19.9944 32.7504 20.2243 32.7504 20.5848V26.2152C32.7504 26.5757 32.802 26.8056 32.9053 26.9051C32.9522 26.9672 33.0226 27.0231 33.1165 27.0729C33.2198 27.1226 33.3606 27.1474 33.539 27.1474H42.7768C42.8238 27.1474 42.8473 27.1723 42.8473 27.222C42.7346 28.1915 42.4436 28.9 41.9742 29.3474C41.5141 29.7824 40.918 30 40.1857 30H33.1869C32.3044 30 31.6191 29.7017 31.1309 29.105C30.6521 28.5084 30.4127 27.6073 30.4127 26.4017V20.417C30.4127 19.2113 30.6474 18.3102 31.1168 17.7136C31.5862 17.117 32.2763 16.8187 33.1869 16.8187H40.1857Z" fill="url(#paint0_linear_2334_298)" fill-opacity="0.5"/>
<path d="M45.672 17.6018C45.672 17.3905 45.7237 17.2165 45.827 17.0797C45.9302 16.943 46.0617 16.8746 46.2213 16.8746H47.4605C47.5262 16.8746 47.5919 16.8871 47.6576 16.9119C47.7327 16.9368 47.7985 16.9927 47.8548 17.0797C47.9205 17.1667 47.9627 17.26 47.9815 17.3594C48.0003 17.4464 48.0097 17.5272 48.0097 17.6018V21.9831H55.2902V17.6018C55.2902 17.3905 55.3418 17.2165 55.4451 17.0797C55.5483 16.943 55.6798 16.8746 55.8394 16.8746H57.0786C57.1443 16.8746 57.21 16.8933 57.2757 16.9306C57.3508 16.9554 57.4213 17.0052 57.487 17.0797C57.5902 17.2537 57.6419 17.4278 57.6419 17.6018V29.1983C57.6419 29.422 57.5855 29.6022 57.4729 29.7389C57.3696 29.8632 57.2382 29.9254 57.0786 29.9254H55.8394C55.6798 29.9254 55.5483 29.857 55.4451 29.7203C55.3418 29.5836 55.2902 29.4096 55.2902 29.1983V24.8169H48.0097V29.1983C48.0097 29.2728 48.0003 29.3598 47.9815 29.4593C47.9627 29.5463 47.9205 29.6333 47.8548 29.7203C47.7985 29.8073 47.7327 29.8632 47.6576 29.8881C47.5919 29.9129 47.5262 29.9254 47.4605 29.9254H46.2213C46.0617 29.9254 45.9302 29.857 45.827 29.7203C45.7237 29.5836 45.672 29.4096 45.672 29.1983V17.6018Z" fill="url(#paint1_linear_2334_298)" fill-opacity="0.5"/>
<path d="M69.1768 16.8746C70.0593 16.8746 70.7305 17.1854 71.1905 17.8068C71.66 18.4159 71.8947 19.3046 71.8947 20.4729V23.0644C71.8947 23.6735 71.8383 24.1893 71.7257 24.6119C71.6224 25.022 71.4581 25.3638 71.2328 25.6373C71.0169 25.9107 70.7446 26.122 70.416 26.2712C70.0874 26.4203 69.7025 26.526 69.2613 26.5881C69.2331 26.5881 69.2144 26.6068 69.205 26.6441C69.1956 26.6689 69.2003 26.6938 69.219 26.7186C69.3693 26.9051 69.557 27.1412 69.7823 27.4271C70.0076 27.7005 70.2377 27.9864 70.4724 28.2847C70.7071 28.583 70.9277 28.8689 71.1342 29.1423C71.3501 29.4158 71.5191 29.6333 71.6412 29.7949C71.66 29.8197 71.66 29.8508 71.6412 29.8881C71.6318 29.9129 71.6177 29.9254 71.5989 29.9254H68.4023C68.3741 29.9254 68.36 29.9192 68.36 29.9067C67.9563 29.3847 67.5245 28.8316 67.0645 28.2474C66.6045 27.6508 66.1585 27.0791 65.7267 26.5322C65.2948 25.9729 64.8958 25.4633 64.5297 25.0034C64.1729 24.5435 63.8913 24.1831 63.6848 23.922C63.666 23.8972 63.6613 23.8723 63.6707 23.8475C63.6801 23.8102 63.6988 23.7915 63.727 23.7915H68.8247C69.1064 23.7915 69.2942 23.7294 69.388 23.6051C69.4913 23.4808 69.5429 23.2322 69.5429 22.8593V20.6594C69.5429 20.4356 69.5289 20.2741 69.5007 20.1746C69.4725 20.0628 69.4397 19.982 69.4021 19.9322C69.3646 19.8701 69.3035 19.8204 69.219 19.7831C69.1346 19.7458 69.0031 19.7272 68.8247 19.7272H60.2487C60.2112 19.7272 60.1924 19.7023 60.1924 19.6526V17.6018C60.1924 17.3905 60.244 17.2165 60.3473 17.0797C60.4506 16.943 60.582 16.8746 60.7416 16.8746H69.1768Z" fill="url(#paint2_linear_2334_298)" fill-opacity="0.5"/>
<path d="M75.2308 20.417C75.2308 19.2113 75.4655 18.3102 75.9349 17.7136C76.4043 17.117 77.0943 16.8187 78.005 16.8187H84.9334C85.8159 16.8187 86.4965 17.117 86.9753 17.7136C87.4541 18.3102 87.6935 19.2113 87.6935 20.417V26.4017C87.6935 27.57 87.4541 28.4649 86.9753 29.0864C86.4965 29.6954 85.8159 30 84.9334 30H78.005C77.1225 30 76.4372 29.7017 75.949 29.105C75.4702 28.5084 75.2308 27.6073 75.2308 26.4017V20.417ZM77.5684 26.2152C77.5684 26.5757 77.6201 26.8056 77.7233 26.9051C77.7703 26.9672 77.8407 27.0231 77.9346 27.0729C78.0378 27.1226 78.1787 27.1474 78.357 27.1474H84.5813C84.7597 27.1474 84.8958 27.1288 84.9897 27.0915C85.093 27.0418 85.1681 26.9859 85.215 26.9237C85.2526 26.8616 85.2855 26.7808 85.3136 26.6813C85.3418 26.5819 85.3559 26.4265 85.3559 26.2152V20.5848C85.3559 20.2119 85.2948 19.9695 85.1728 19.8577C85.0508 19.7334 84.8536 19.6712 84.5813 19.6712H78.357C78.1787 19.6712 78.0378 19.6961 77.9346 19.7458C77.8407 19.7831 77.7703 19.8328 77.7233 19.895C77.6201 19.9944 77.5684 20.2243 77.5684 20.5848V26.2152Z" fill="url(#paint3_linear_2334_298)" fill-opacity="0.5"/>
<path d="M93.9773 16.8746C94.1088 16.8746 94.212 16.9119 94.2871 16.9865C94.3622 17.0487 94.4233 17.1108 94.4702 17.173C94.4796 17.173 94.489 17.1792 94.4984 17.1916L101.624 26.0474V17.6018C101.624 17.3905 101.676 17.2165 101.779 17.0797C101.882 16.943 102.014 16.8746 102.173 16.8746H103.412C103.572 16.8746 103.703 16.943 103.807 17.0797C103.919 17.2165 103.976 17.3905 103.976 17.6018V29.1983C103.976 29.2853 103.966 29.3785 103.947 29.4779C103.929 29.5649 103.886 29.6457 103.821 29.7203C103.764 29.8073 103.699 29.8632 103.624 29.8881C103.549 29.9129 103.478 29.9254 103.412 29.9254H101.877C101.746 29.9254 101.643 29.8943 101.568 29.8322C101.493 29.7576 101.431 29.6954 101.385 29.6457L101.356 29.6084L94.2167 20.7526V29.1983C94.2167 29.2728 94.2073 29.3598 94.1886 29.4593C94.1698 29.5463 94.1275 29.6333 94.0618 29.7203C94.0055 29.8073 93.9398 29.8632 93.8647 29.8881C93.799 29.9129 93.7332 29.9254 93.6675 29.9254H92.4283C92.2687 29.9254 92.1373 29.857 92.034 29.7203C91.9307 29.5836 91.8791 29.4096 91.8791 29.1983V17.6018C91.8791 17.3905 91.9307 17.2165 92.034 17.0797C92.1373 16.943 92.2687 16.8746 92.4283 16.8746H93.9773Z" fill="url(#paint4_linear_2334_298)" fill-opacity="0.5"/>
<path d="M110.583 16.8746C110.648 16.8746 110.714 16.8871 110.78 16.9119C110.855 16.9368 110.921 16.9927 110.977 17.0797C111.043 17.1667 111.085 17.26 111.104 17.3594C111.122 17.4464 111.132 17.5272 111.132 17.6018V29.1983C111.132 29.2728 111.122 29.3598 111.104 29.4593C111.085 29.5463 111.043 29.6333 110.977 29.7203C110.921 29.8073 110.855 29.8632 110.78 29.8881C110.714 29.9129 110.648 29.9254 110.583 29.9254H109.343C109.184 29.9254 109.052 29.857 108.949 29.7203C108.846 29.5836 108.794 29.4096 108.794 29.1983V17.6018C108.794 17.3905 108.846 17.2165 108.949 17.0797C109.052 16.943 109.184 16.8746 109.343 16.8746H110.583Z" fill="url(#paint5_linear_2334_298)" fill-opacity="0.5"/>
<path d="M125.119 16.8187C125.851 16.8187 126.447 17.0362 126.907 17.4713C127.367 17.9063 127.653 18.6085 127.766 19.578C127.794 19.6402 127.776 19.6712 127.71 19.6712H118.472C118.294 19.6712 118.153 19.6961 118.049 19.7458C117.956 19.7831 117.885 19.8328 117.838 19.895C117.735 19.9944 117.683 20.2243 117.683 20.5848V26.2152C117.683 26.5757 117.735 26.8056 117.838 26.9051C117.885 26.9672 117.956 27.0231 118.049 27.0729C118.153 27.1226 118.294 27.1474 118.472 27.1474H127.71C127.757 27.1474 127.78 27.1723 127.78 27.222C127.668 28.1915 127.377 28.9 126.907 29.3474C126.447 29.7824 125.851 30 125.119 30H118.12C117.237 30 116.552 29.7017 116.064 29.105C115.585 28.5084 115.346 27.6073 115.346 26.4017V20.417C115.346 19.2113 115.58 18.3102 116.05 17.7136C116.519 17.117 117.209 16.8187 118.12 16.8187H125.119Z" fill="url(#paint6_linear_2334_298)" fill-opacity="0.5"/>
<path d="M130.436 17.6018C130.436 17.4278 130.488 17.2537 130.591 17.0797C130.657 17.0052 130.722 16.9554 130.788 16.9306C130.863 16.8933 130.934 16.8746 130.999 16.8746H132.239C132.304 16.8746 132.37 16.8871 132.436 16.9119C132.511 16.9368 132.576 16.9927 132.633 17.0797C132.699 17.1667 132.741 17.26 132.76 17.3594C132.778 17.4464 132.788 17.5272 132.788 17.6018V26.1593C132.788 26.3706 132.802 26.5322 132.83 26.6441C132.858 26.7559 132.891 26.8367 132.929 26.8864C132.975 26.9361 133.037 26.9796 133.112 27.0169C133.196 27.0542 133.323 27.0729 133.492 27.0729H141.786C141.946 27.0729 142.077 27.1412 142.181 27.2779C142.284 27.4147 142.335 27.5887 142.335 27.8V29.1983C142.335 29.2728 142.321 29.3598 142.293 29.4593C142.274 29.5463 142.237 29.6333 142.181 29.7203C142.115 29.8073 142.044 29.8632 141.969 29.8881C141.904 29.9129 141.843 29.9254 141.786 29.9254H133.154C132.271 29.9254 131.595 29.6209 131.126 29.0118C130.666 28.3904 130.436 27.4955 130.436 26.3271V17.6018Z" fill="url(#paint7_linear_2334_298)" fill-opacity="0.5"/>
<path d="M144.787 27.9864C144.787 27.8497 144.791 27.7751 144.801 27.7627C144.801 27.6011 144.838 27.452 144.913 27.3152C144.979 27.2282 145.04 27.1661 145.096 27.1288C145.153 27.0915 145.228 27.0729 145.322 27.0729H155.602C155.724 27.0729 155.836 27.1164 155.94 27.2034C156.052 27.2904 156.118 27.4209 156.137 27.5949C156.146 27.6073 156.151 27.6757 156.151 27.8V29.1983C156.151 29.2728 156.142 29.3598 156.123 29.4593C156.104 29.5463 156.066 29.6333 156.01 29.7203L155.968 29.7762C155.911 29.8384 155.85 29.8819 155.785 29.9067C155.719 29.9192 155.658 29.9254 155.602 29.9254H145.336C145.204 29.9254 145.092 29.8819 144.998 29.7949C144.988 29.7824 144.979 29.7762 144.97 29.7762C144.96 29.7638 144.951 29.7452 144.942 29.7203C144.885 29.6457 144.843 29.5649 144.815 29.4779C144.796 29.3785 144.787 29.2915 144.787 29.2169V27.9864ZM144.801 17.5458C144.81 17.4837 144.819 17.4153 144.829 17.3407C144.848 17.2537 144.88 17.1792 144.927 17.117L144.998 17.0424C145.064 16.9679 145.134 16.9181 145.209 16.8933C145.284 16.8684 145.35 16.8622 145.406 16.8746H155.545C155.649 16.8746 155.733 16.8995 155.799 16.9492C155.874 17.0114 155.93 17.0735 155.968 17.1357C156.015 17.1854 156.048 17.2724 156.066 17.3967C156.076 17.4588 156.08 17.5085 156.08 17.5458C156.09 17.5707 156.095 17.5893 156.095 17.6018V19.0001C156.095 19.0871 156.085 19.1803 156.066 19.2797C156.048 19.3667 156.005 19.4537 155.94 19.5407C155.874 19.6153 155.804 19.665 155.728 19.6899C155.663 19.7147 155.602 19.7272 155.545 19.7272H145.336C145.289 19.7272 145.233 19.7209 145.167 19.7085C145.11 19.6961 145.059 19.6588 145.012 19.5967C144.993 19.5842 144.979 19.578 144.97 19.578C144.97 19.5656 144.96 19.5532 144.942 19.5407C144.876 19.4537 144.834 19.3667 144.815 19.2797C144.796 19.1803 144.787 19.0933 144.787 19.0187V17.7696C144.787 17.7323 144.787 17.695 144.787 17.6577C144.796 17.6204 144.801 17.5831 144.801 17.5458ZM144.787 22.8407L144.815 22.617C144.815 22.4802 144.857 22.3435 144.942 22.2068L145.012 22.1322C145.078 22.0577 145.148 22.0141 145.223 22.0017C145.298 21.9769 145.369 21.9706 145.434 21.9831H155.419C155.466 21.9831 155.517 21.9893 155.574 22.0017C155.639 22.0141 155.696 22.0514 155.743 22.1136C155.789 22.1384 155.832 22.1944 155.869 22.2814C155.907 22.3684 155.93 22.443 155.94 22.5051C155.949 22.5175 155.954 22.5859 155.954 22.7102V24.0898C155.954 24.3136 155.902 24.4938 155.799 24.6305C155.705 24.7548 155.574 24.8169 155.405 24.8169H145.336C145.289 24.8169 145.233 24.8107 145.167 24.7983C145.11 24.7859 145.054 24.7486 144.998 24.6864C144.988 24.674 144.979 24.6678 144.97 24.6678C144.96 24.6554 144.951 24.6367 144.942 24.6119C144.848 24.5124 144.796 24.3819 144.787 24.2203V22.8407Z" fill="url(#paint8_linear_2334_298)" fill-opacity="0.5"/>
<path d="M168.916 16.7441C169.207 16.7441 169.479 16.8187 169.733 16.9679C169.986 17.1046 170.207 17.2972 170.394 17.5458C170.582 17.7944 170.728 18.0865 170.831 18.4221C170.944 18.7577 171 19.1181 171 19.5034V19.5221C171 19.5718 170.981 19.5967 170.944 19.5967H161.959C161.762 19.5967 161.607 19.6215 161.495 19.6712C161.382 19.721 161.302 19.7769 161.255 19.839C161.208 19.9012 161.166 19.9944 161.128 20.1187C161.1 20.2305 161.086 20.3921 161.086 20.6034C161.086 20.9887 161.147 21.2622 161.269 21.4238C161.326 21.5108 161.41 21.5853 161.523 21.6475C161.635 21.6972 161.8 21.7345 162.016 21.7593L167.944 22.2068C168.883 22.2689 169.625 22.617 170.169 23.2509C170.723 23.8723 171 24.8294 171 26.122C171 27.4644 170.728 28.4339 170.183 29.0305C169.648 29.6271 168.892 29.9254 167.916 29.9254H160.889C160.607 29.9254 160.34 29.857 160.086 29.7203C159.833 29.5711 159.608 29.3785 159.41 29.1423C159.223 28.8937 159.072 28.6017 158.96 28.2661C158.847 27.9305 158.786 27.5762 158.777 27.2034C158.777 27.1537 158.795 27.1226 158.833 27.1102H159.354C159.589 27.1102 159.889 27.1102 160.255 27.1102C160.631 27.1102 161.039 27.1102 161.48 27.1102C161.922 27.0977 162.382 27.0915 162.86 27.0915C163.349 27.0915 163.827 27.0915 164.297 27.0915C164.86 27.0915 165.428 27.0915 166.001 27.0915C166.583 27.0915 167.184 27.0853 167.803 27.0729C168.104 27.0729 168.324 27.0107 168.465 26.8864C168.606 26.7497 168.676 26.4763 168.676 26.0661C168.676 25.6808 168.62 25.4011 168.507 25.2271C168.451 25.1525 168.367 25.0842 168.254 25.022C168.141 24.9599 167.977 24.9226 167.761 24.9102L161.832 24.4627C160.884 24.3881 160.138 24.0401 159.593 23.4187C159.049 22.7972 158.777 21.8339 158.777 20.5289C158.777 19.1989 159.049 18.2357 159.593 17.639C160.138 17.0424 160.894 16.7441 161.861 16.7441H168.916Z" fill="url(#paint9_linear_2334_298)" fill-opacity="0.5"/>
<path d="M40.1857 16.8187C40.918 16.8187 41.5141 17.0362 41.9742 17.4713C42.4342 17.9063 42.7205 18.6085 42.8332 19.578C42.8613 19.6402 42.8426 19.6712 42.7768 19.6712H33.539C33.3606 19.6712 33.2198 19.6961 33.1165 19.7458C33.0226 19.7831 32.9522 19.8328 32.9053 19.895C32.802 19.9944 32.7504 20.2243 32.7504 20.5848V26.2152C32.7504 26.5757 32.802 26.8056 32.9053 26.9051C32.9522 26.9672 33.0226 27.0231 33.1165 27.0729C33.2198 27.1226 33.3606 27.1474 33.539 27.1474H42.7768C42.8238 27.1474 42.8473 27.1723 42.8473 27.222C42.7346 28.1915 42.4436 28.9 41.9742 29.3474C41.5141 29.7824 40.918 30 40.1857 30H33.1869C32.3044 30 31.6191 29.7017 31.1309 29.105C30.6521 28.5084 30.4127 27.6073 30.4127 26.4017V20.417C30.4127 19.2113 30.6474 18.3102 31.1168 17.7136C31.5862 17.117 32.2763 16.8187 33.1869 16.8187H40.1857Z" stroke="url(#paint10_linear_2334_298)" stroke-opacity="0.65" mask="url(#path-1-inside-1_2334_298)"/>
<path d="M45.672 17.6018C45.672 17.3905 45.7237 17.2165 45.827 17.0797C45.9302 16.943 46.0617 16.8746 46.2213 16.8746H47.4605C47.5262 16.8746 47.5919 16.8871 47.6576 16.9119C47.7327 16.9368 47.7985 16.9927 47.8548 17.0797C47.9205 17.1667 47.9627 17.26 47.9815 17.3594C48.0003 17.4464 48.0097 17.5272 48.0097 17.6018V21.9831H55.2902V17.6018C55.2902 17.3905 55.3418 17.2165 55.4451 17.0797C55.5483 16.943 55.6798 16.8746 55.8394 16.8746H57.0786C57.1443 16.8746 57.21 16.8933 57.2757 16.9306C57.3508 16.9554 57.4213 17.0052 57.487 17.0797C57.5902 17.2537 57.6419 17.4278 57.6419 17.6018V29.1983C57.6419 29.422 57.5855 29.6022 57.4729 29.7389C57.3696 29.8632 57.2382 29.9254 57.0786 29.9254H55.8394C55.6798 29.9254 55.5483 29.857 55.4451 29.7203C55.3418 29.5836 55.2902 29.4096 55.2902 29.1983V24.8169H48.0097V29.1983C48.0097 29.2728 48.0003 29.3598 47.9815 29.4593C47.9627 29.5463 47.9205 29.6333 47.8548 29.7203C47.7985 29.8073 47.7327 29.8632 47.6576 29.8881C47.5919 29.9129 47.5262 29.9254 47.4605 29.9254H46.2213C46.0617 29.9254 45.9302 29.857 45.827 29.7203C45.7237 29.5836 45.672 29.4096 45.672 29.1983V17.6018Z" stroke="url(#paint11_linear_2334_298)" stroke-opacity="0.65" mask="url(#path-1-inside-1_2334_298)"/>
<path d="M69.1768 16.8746C70.0593 16.8746 70.7305 17.1854 71.1905 17.8068C71.66 18.4159 71.8947 19.3046 71.8947 20.4729V23.0644C71.8947 23.6735 71.8383 24.1893 71.7257 24.6119C71.6224 25.022 71.4581 25.3638 71.2328 25.6373C71.0169 25.9107 70.7446 26.122 70.416 26.2712C70.0874 26.4203 69.7025 26.526 69.2613 26.5881C69.2331 26.5881 69.2144 26.6068 69.205 26.6441C69.1956 26.6689 69.2003 26.6938 69.219 26.7186C69.3693 26.9051 69.557 27.1412 69.7823 27.4271C70.0076 27.7005 70.2377 27.9864 70.4724 28.2847C70.7071 28.583 70.9277 28.8689 71.1342 29.1423C71.3501 29.4158 71.5191 29.6333 71.6412 29.7949C71.66 29.8197 71.66 29.8508 71.6412 29.8881C71.6318 29.9129 71.6177 29.9254 71.5989 29.9254H68.4023C68.3741 29.9254 68.36 29.9192 68.36 29.9067C67.9563 29.3847 67.5245 28.8316 67.0645 28.2474C66.6045 27.6508 66.1585 27.0791 65.7267 26.5322C65.2948 25.9729 64.8958 25.4633 64.5297 25.0034C64.1729 24.5435 63.8913 24.1831 63.6848 23.922C63.666 23.8972 63.6613 23.8723 63.6707 23.8475C63.6801 23.8102 63.6988 23.7915 63.727 23.7915H68.8247C69.1064 23.7915 69.2942 23.7294 69.388 23.6051C69.4913 23.4808 69.5429 23.2322 69.5429 22.8593V20.6594C69.5429 20.4356 69.5289 20.2741 69.5007 20.1746C69.4725 20.0628 69.4397 19.982 69.4021 19.9322C69.3646 19.8701 69.3035 19.8204 69.219 19.7831C69.1346 19.7458 69.0031 19.7272 68.8247 19.7272H60.2487C60.2112 19.7272 60.1924 19.7023 60.1924 19.6526V17.6018C60.1924 17.3905 60.244 17.2165 60.3473 17.0797C60.4506 16.943 60.582 16.8746 60.7416 16.8746H69.1768Z" stroke="url(#paint12_linear_2334_298)" stroke-opacity="0.65" mask="url(#path-1-inside-1_2334_298)"/>
<path d="M75.2308 20.417C75.2308 19.2113 75.4655 18.3102 75.9349 17.7136C76.4043 17.117 77.0943 16.8187 78.005 16.8187H84.9334C85.8159 16.8187 86.4965 17.117 86.9753 17.7136C87.4541 18.3102 87.6935 19.2113 87.6935 20.417V26.4017C87.6935 27.57 87.4541 28.4649 86.9753 29.0864C86.4965 29.6954 85.8159 30 84.9334 30H78.005C77.1225 30 76.4372 29.7017 75.949 29.105C75.4702 28.5084 75.2308 27.6073 75.2308 26.4017V20.417ZM77.5684 26.2152C77.5684 26.5757 77.6201 26.8056 77.7233 26.9051C77.7703 26.9672 77.8407 27.0231 77.9346 27.0729C78.0378 27.1226 78.1787 27.1474 78.357 27.1474H84.5813C84.7597 27.1474 84.8958 27.1288 84.9897 27.0915C85.093 27.0418 85.1681 26.9859 85.215 26.9237C85.2526 26.8616 85.2855 26.7808 85.3136 26.6813C85.3418 26.5819 85.3559 26.4265 85.3559 26.2152V20.5848C85.3559 20.2119 85.2948 19.9695 85.1728 19.8577C85.0508 19.7334 84.8536 19.6712 84.5813 19.6712H78.357C78.1787 19.6712 78.0378 19.6961 77.9346 19.7458C77.8407 19.7831 77.7703 19.8328 77.7233 19.895C77.6201 19.9944 77.5684 20.2243 77.5684 20.5848V26.2152Z" stroke="url(#paint13_linear_2334_298)" stroke-opacity="0.65" mask="url(#path-1-inside-1_2334_298)"/>
<path d="M93.9773 16.8746C94.1088 16.8746 94.212 16.9119 94.2871 16.9865C94.3622 17.0487 94.4233 17.1108 94.4702 17.173C94.4796 17.173 94.489 17.1792 94.4984 17.1916L101.624 26.0474V17.6018C101.624 17.3905 101.676 17.2165 101.779 17.0797C101.882 16.943 102.014 16.8746 102.173 16.8746H103.412C103.572 16.8746 103.703 16.943 103.807 17.0797C103.919 17.2165 103.976 17.3905 103.976 17.6018V29.1983C103.976 29.2853 103.966 29.3785 103.947 29.4779C103.929 29.5649 103.886 29.6457 103.821 29.7203C103.764 29.8073 103.699 29.8632 103.624 29.8881C103.549 29.9129 103.478 29.9254 103.412 29.9254H101.877C101.746 29.9254 101.643 29.8943 101.568 29.8322C101.493 29.7576 101.431 29.6954 101.385 29.6457L101.356 29.6084L94.2167 20.7526V29.1983C94.2167 29.2728 94.2073 29.3598 94.1886 29.4593C94.1698 29.5463 94.1275 29.6333 94.0618 29.7203C94.0055 29.8073 93.9398 29.8632 93.8647 29.8881C93.799 29.9129 93.7332 29.9254 93.6675 29.9254H92.4283C92.2687 29.9254 92.1373 29.857 92.034 29.7203C91.9307 29.5836 91.8791 29.4096 91.8791 29.1983V17.6018C91.8791 17.3905 91.9307 17.2165 92.034 17.0797C92.1373 16.943 92.2687 16.8746 92.4283 16.8746H93.9773Z" stroke="url(#paint14_linear_2334_298)" stroke-opacity="0.65" mask="url(#path-1-inside-1_2334_298)"/>
<path d="M110.583 16.8746C110.648 16.8746 110.714 16.8871 110.78 16.9119C110.855 16.9368 110.921 16.9927 110.977 17.0797C111.043 17.1667 111.085 17.26 111.104 17.3594C111.122 17.4464 111.132 17.5272 111.132 17.6018V29.1983C111.132 29.2728 111.122 29.3598 111.104 29.4593C111.085 29.5463 111.043 29.6333 110.977 29.7203C110.921 29.8073 110.855 29.8632 110.78 29.8881C110.714 29.9129 110.648 29.9254 110.583 29.9254H109.343C109.184 29.9254 109.052 29.857 108.949 29.7203C108.846 29.5836 108.794 29.4096 108.794 29.1983V17.6018C108.794 17.3905 108.846 17.2165 108.949 17.0797C109.052 16.943 109.184 16.8746 109.343 16.8746H110.583Z" stroke="url(#paint15_linear_2334_298)" stroke-opacity="0.65" mask="url(#path-1-inside-1_2334_298)"/>
<path d="M125.119 16.8187C125.851 16.8187 126.447 17.0362 126.907 17.4713C127.367 17.9063 127.653 18.6085 127.766 19.578C127.794 19.6402 127.776 19.6712 127.71 19.6712H118.472C118.294 19.6712 118.153 19.6961 118.049 19.7458C117.956 19.7831 117.885 19.8328 117.838 19.895C117.735 19.9944 117.683 20.2243 117.683 20.5848V26.2152C117.683 26.5757 117.735 26.8056 117.838 26.9051C117.885 26.9672 117.956 27.0231 118.049 27.0729C118.153 27.1226 118.294 27.1474 118.472 27.1474H127.71C127.757 27.1474 127.78 27.1723 127.78 27.222C127.668 28.1915 127.377 28.9 126.907 29.3474C126.447 29.7824 125.851 30 125.119 30H118.12C117.237 30 116.552 29.7017 116.064 29.105C115.585 28.5084 115.346 27.6073 115.346 26.4017V20.417C115.346 19.2113 115.58 18.3102 116.05 17.7136C116.519 17.117 117.209 16.8187 118.12 16.8187H125.119Z" stroke="url(#paint16_linear_2334_298)" stroke-opacity="0.65" mask="url(#path-1-inside-1_2334_298)"/>
<path d="M130.436 17.6018C130.436 17.4278 130.488 17.2537 130.591 17.0797C130.657 17.0052 130.722 16.9554 130.788 16.9306C130.863 16.8933 130.934 16.8746 130.999 16.8746H132.239C132.304 16.8746 132.37 16.8871 132.436 16.9119C132.511 16.9368 132.576 16.9927 132.633 17.0797C132.699 17.1667 132.741 17.26 132.76 17.3594C132.778 17.4464 132.788 17.5272 132.788 17.6018V26.1593C132.788 26.3706 132.802 26.5322 132.83 26.6441C132.858 26.7559 132.891 26.8367 132.929 26.8864C132.975 26.9361 133.037 26.9796 133.112 27.0169C133.196 27.0542 133.323 27.0729 133.492 27.0729H141.786C141.946 27.0729 142.077 27.1412 142.181 27.2779C142.284 27.4147 142.335 27.5887 142.335 27.8V29.1983C142.335 29.2728 142.321 29.3598 142.293 29.4593C142.274 29.5463 142.237 29.6333 142.181 29.7203C142.115 29.8073 142.044 29.8632 141.969 29.8881C141.904 29.9129 141.843 29.9254 141.786 29.9254H133.154C132.271 29.9254 131.595 29.6209 131.126 29.0118C130.666 28.3904 130.436 27.4955 130.436 26.3271V17.6018Z" stroke="url(#paint17_linear_2334_298)" stroke-opacity="0.65" mask="url(#path-1-inside-1_2334_298)"/>
<path d="M144.787 27.9864C144.787 27.8497 144.791 27.7751 144.801 27.7627C144.801 27.6011 144.838 27.452 144.913 27.3152C144.979 27.2282 145.04 27.1661 145.096 27.1288C145.153 27.0915 145.228 27.0729 145.322 27.0729H155.602C155.724 27.0729 155.836 27.1164 155.94 27.2034C156.052 27.2904 156.118 27.4209 156.137 27.5949C156.146 27.6073 156.151 27.6757 156.151 27.8V29.1983C156.151 29.2728 156.142 29.3598 156.123 29.4593C156.104 29.5463 156.066 29.6333 156.01 29.7203L155.968 29.7762C155.911 29.8384 155.85 29.8819 155.785 29.9067C155.719 29.9192 155.658 29.9254 155.602 29.9254H145.336C145.204 29.9254 145.092 29.8819 144.998 29.7949C144.988 29.7824 144.979 29.7762 144.97 29.7762C144.96 29.7638 144.951 29.7452 144.942 29.7203C144.885 29.6457 144.843 29.5649 144.815 29.4779C144.796 29.3785 144.787 29.2915 144.787 29.2169V27.9864ZM144.801 17.5458C144.81 17.4837 144.819 17.4153 144.829 17.3407C144.848 17.2537 144.88 17.1792 144.927 17.117L144.998 17.0424C145.064 16.9679 145.134 16.9181 145.209 16.8933C145.284 16.8684 145.35 16.8622 145.406 16.8746H155.545C155.649 16.8746 155.733 16.8995 155.799 16.9492C155.874 17.0114 155.93 17.0735 155.968 17.1357C156.015 17.1854 156.048 17.2724 156.066 17.3967C156.076 17.4588 156.08 17.5085 156.08 17.5458C156.09 17.5707 156.095 17.5893 156.095 17.6018V19.0001C156.095 19.0871 156.085 19.1803 156.066 19.2797C156.048 19.3667 156.005 19.4537 155.94 19.5407C155.874 19.6153 155.804 19.665 155.728 19.6899C155.663 19.7147 155.602 19.7272 155.545 19.7272H145.336C145.289 19.7272 145.233 19.7209 145.167 19.7085C145.11 19.6961 145.059 19.6588 145.012 19.5967C144.993 19.5842 144.979 19.578 144.97 19.578C144.97 19.5656 144.96 19.5532 144.942 19.5407C144.876 19.4537 144.834 19.3667 144.815 19.2797C144.796 19.1803 144.787 19.0933 144.787 19.0187V17.7696C144.787 17.7323 144.787 17.695 144.787 17.6577C144.796 17.6204 144.801 17.5831 144.801 17.5458ZM144.787 22.8407L144.815 22.617C144.815 22.4802 144.857 22.3435 144.942 22.2068L145.012 22.1322C145.078 22.0577 145.148 22.0141 145.223 22.0017C145.298 21.9769 145.369 21.9706 145.434 21.9831H155.419C155.466 21.9831 155.517 21.9893 155.574 22.0017C155.639 22.0141 155.696 22.0514 155.743 22.1136C155.789 22.1384 155.832 22.1944 155.869 22.2814C155.907 22.3684 155.93 22.443 155.94 22.5051C155.949 22.5175 155.954 22.5859 155.954 22.7102V24.0898C155.954 24.3136 155.902 24.4938 155.799 24.6305C155.705 24.7548 155.574 24.8169 155.405 24.8169H145.336C145.289 24.8169 145.233 24.8107 145.167 24.7983C145.11 24.7859 145.054 24.7486 144.998 24.6864C144.988 24.674 144.979 24.6678 144.97 24.6678C144.96 24.6554 144.951 24.6367 144.942 24.6119C144.848 24.5124 144.796 24.3819 144.787 24.2203V22.8407Z" stroke="url(#paint18_linear_2334_298)" stroke-opacity="0.65" mask="url(#path-1-inside-1_2334_298)"/>
<path d="M168.916 16.7441C169.207 16.7441 169.479 16.8187 169.733 16.9679C169.986 17.1046 170.207 17.2972 170.394 17.5458C170.582 17.7944 170.728 18.0865 170.831 18.4221C170.944 18.7577 171 19.1181 171 19.5034V19.5221C171 19.5718 170.981 19.5967 170.944 19.5967H161.959C161.762 19.5967 161.607 19.6215 161.495 19.6712C161.382 19.721 161.302 19.7769 161.255 19.839C161.208 19.9012 161.166 19.9944 161.128 20.1187C161.1 20.2305 161.086 20.3921 161.086 20.6034C161.086 20.9887 161.147 21.2622 161.269 21.4238C161.326 21.5108 161.41 21.5853 161.523 21.6475C161.635 21.6972 161.8 21.7345 162.016 21.7593L167.944 22.2068C168.883 22.2689 169.625 22.617 170.169 23.2509C170.723 23.8723 171 24.8294 171 26.122C171 27.4644 170.728 28.4339 170.183 29.0305C169.648 29.6271 168.892 29.9254 167.916 29.9254H160.889C160.607 29.9254 160.34 29.857 160.086 29.7203C159.833 29.5711 159.608 29.3785 159.41 29.1423C159.223 28.8937 159.072 28.6017 158.96 28.2661C158.847 27.9305 158.786 27.5762 158.777 27.2034C158.777 27.1537 158.795 27.1226 158.833 27.1102H159.354C159.589 27.1102 159.889 27.1102 160.255 27.1102C160.631 27.1102 161.039 27.1102 161.48 27.1102C161.922 27.0977 162.382 27.0915 162.86 27.0915C163.349 27.0915 163.827 27.0915 164.297 27.0915C164.86 27.0915 165.428 27.0915 166.001 27.0915C166.583 27.0915 167.184 27.0853 167.803 27.0729C168.104 27.0729 168.324 27.0107 168.465 26.8864C168.606 26.7497 168.676 26.4763 168.676 26.0661C168.676 25.6808 168.62 25.4011 168.507 25.2271C168.451 25.1525 168.367 25.0842 168.254 25.022C168.141 24.9599 167.977 24.9226 167.761 24.9102L161.832 24.4627C160.884 24.3881 160.138 24.0401 159.593 23.4187C159.049 22.7972 158.777 21.8339 158.777 20.5289C158.777 19.1989 159.049 18.2357 159.593 17.639C160.138 17.0424 160.894 16.7441 161.861 16.7441H168.916Z" stroke="url(#paint19_linear_2334_298)" stroke-opacity="0.65" mask="url(#path-1-inside-1_2334_298)"/>
<mask id="path-2-inside-2_2334_298" fill="white">
<path d="M9.38458 0C11.1064 0 11.9674 1.14273 11.9674 3.42818V4.13868C11.9674 4.22157 11.9584 4.31038 11.9403 4.40512C11.9223 4.49985 11.8817 4.58274 11.8186 4.65379C11.7645 4.73669 11.7059 4.78997 11.6428 4.81366C11.5797 4.83734 11.5121 4.84918 11.44 4.84918H10.25C10.0968 4.84918 9.97055 4.78405 9.87139 4.65379C9.77223 4.51169 9.72264 4.33999 9.72264 4.13868V3.58804C9.72264 3.36305 9.70912 3.20318 9.68208 3.10845C9.65503 3.00188 9.62348 2.9249 9.58742 2.87754C9.56037 2.83017 9.50628 2.79464 9.42515 2.77096C9.35303 2.73544 9.23584 2.71767 9.07357 2.71767H3.00198C2.8307 2.71767 2.69548 2.74136 2.59631 2.78872C2.50616 2.82425 2.43855 2.87162 2.39347 2.93082C2.29431 3.02556 2.24473 3.24463 2.24473 3.58804V8.95234C2.24473 9.29575 2.29431 9.51482 2.39347 9.60955C2.43855 9.66876 2.50616 9.72205 2.59631 9.76941C2.69548 9.81678 2.8307 9.84047 3.00198 9.84047H9.07357C9.335 9.84047 9.50628 9.78718 9.58742 9.6806C9.67757 9.57403 9.72264 9.34904 9.72264 9.00563V8.79247C9.72264 8.70958 9.73166 8.62669 9.74969 8.5438C9.77673 8.44906 9.8173 8.36025 9.87139 8.27736C9.9976 8.1471 10.1238 8.08197 10.25 8.08197H11.44C11.6023 8.08197 11.7285 8.15302 11.8186 8.29512C11.9178 8.42538 11.9674 8.59116 11.9674 8.79247V9.16549C11.9674 10.2786 11.7465 11.1253 11.3048 11.7055C10.8721 12.2739 10.232 12.5581 9.38458 12.5581H2.66392C1.81652 12.5581 1.15842 12.2739 0.689645 11.7055C0.229882 11.1371 0 10.2786 0 9.12996V3.42818C0 2.27953 0.225374 1.421 0.676123 0.852603C1.12687 0.284201 1.78947 0 2.66392 0H9.38458Z"/>
<path d="M15.1882 3.42818C15.1882 2.27953 15.4136 1.421 15.8644 0.852603C16.3151 0.284201 16.9777 0 17.8522 0H24.5052C25.3526 0 26.0062 0.284201 26.466 0.852603C26.9257 1.421 27.1556 2.27953 27.1556 3.42818V9.12996C27.1556 10.2431 26.9257 11.0957 26.466 11.6878C26.0062 12.268 25.3526 12.5581 24.5052 12.5581H17.8522C17.0048 12.5581 16.3467 12.2739 15.8779 11.7055C15.4181 11.1371 15.1882 10.2786 15.1882 9.12996V3.42818ZM17.433 8.95234C17.433 9.29575 17.4826 9.51482 17.5817 9.60955C17.6268 9.66876 17.6944 9.72205 17.7846 9.76941C17.8837 9.81678 18.0189 9.84047 18.1902 9.84047H24.1672C24.3384 9.84047 24.4692 9.8227 24.5593 9.78718C24.6585 9.73981 24.7306 9.68652 24.7757 9.62732C24.8117 9.56811 24.8433 9.49114 24.8703 9.3964C24.8974 9.30167 24.9109 9.15365 24.9109 8.95234V3.58804C24.9109 3.23279 24.8523 3.00187 24.7351 2.8953C24.6179 2.77688 24.4286 2.71767 24.1672 2.71767H18.1902C18.0189 2.71767 17.8837 2.74136 17.7846 2.78872C17.6944 2.82425 17.6268 2.87162 17.5817 2.93082C17.4826 3.02556 17.433 3.24463 17.433 3.58804V8.95234Z"/>
<path d="M33.1897 0.0532869C33.3159 0.0532869 33.4151 0.088812 33.4872 0.159863C33.5593 0.219071 33.6179 0.27828 33.663 0.337489C33.672 0.337489 33.681 0.343409 33.69 0.355251L40.5324 8.79247V0.746028C40.5324 0.544718 40.582 0.378934 40.6811 0.248676C40.7803 0.118416 40.9065 0.0532869 41.0598 0.0532869H42.2497C42.403 0.0532869 42.5292 0.118416 42.6284 0.248676C42.7365 0.378934 42.7906 0.544718 42.7906 0.746028V11.7943C42.7906 11.8772 42.7816 11.9661 42.7636 12.0608C42.7456 12.1437 42.705 12.2207 42.6419 12.2917C42.5878 12.3746 42.5247 12.4279 42.4526 12.4516C42.3805 12.4752 42.3128 12.4871 42.2497 12.4871H40.7758C40.6496 12.4871 40.5504 12.4575 40.4783 12.3983C40.4062 12.3272 40.3476 12.268 40.3025 12.2207L40.2755 12.1851L33.4196 3.7479V11.7943C33.4196 11.8654 33.4106 11.9483 33.3925 12.043C33.3745 12.1259 33.3339 12.2088 33.2708 12.2917C33.2167 12.3746 33.1536 12.4279 33.0815 12.4516C33.0184 12.4752 32.9553 12.4871 32.8922 12.4871H31.7022C31.549 12.4871 31.4228 12.422 31.3236 12.2917C31.2244 12.1614 31.1749 11.9957 31.1749 11.7943V0.746028C31.1749 0.544718 31.2244 0.378934 31.3236 0.248676C31.4228 0.118416 31.549 0.0532869 31.7022 0.0532869H33.1897Z"/>
<path d="M56.3266 0.0532869C56.3897 0.0532869 56.4528 0.0710491 56.5159 0.106574C56.5881 0.130258 56.6557 0.177625 56.7188 0.248676C56.8179 0.41446 56.8675 0.580244 56.8675 0.746028V2.07822C56.8675 2.29137 56.8134 2.46308 56.7052 2.59333C56.6061 2.71175 56.4799 2.77096 56.3266 2.77096H52.1076V11.7943C52.1076 11.8654 52.0986 11.9483 52.0806 12.043C52.0625 12.1259 52.022 12.2088 51.9589 12.2917C51.9048 12.3746 51.8417 12.4279 51.7696 12.4516C51.7064 12.4752 51.6433 12.4871 51.5802 12.4871H50.4173C50.3542 12.4871 50.2866 12.4752 50.2145 12.4516C50.1514 12.4279 50.0928 12.3746 50.0387 12.2917C49.9756 12.2088 49.935 12.1259 49.917 12.043C49.8989 11.9483 49.8899 11.8654 49.8899 11.7943V2.77096H45.6574C45.6033 2.77096 45.5402 2.75912 45.4681 2.73544C45.405 2.71175 45.3419 2.66439 45.2788 2.59333C45.2157 2.51044 45.1751 2.42755 45.1571 2.34466C45.139 2.24993 45.13 2.16111 45.13 2.07822V0.746028C45.13 0.544718 45.1796 0.378934 45.2788 0.248676C45.3779 0.118416 45.5041 0.0532869 45.6574 0.0532869H56.3266Z"/>
<path d="M67.9149 0.0532869C68.7623 0.0532869 69.4069 0.34933 69.8486 0.941416C70.2994 1.52166 70.5248 2.36834 70.5248 3.48146V5.95046C70.5248 6.53071 70.4707 7.02214 70.3625 7.42476C70.2633 7.81553 70.1056 8.14118 69.8892 8.4017C69.6819 8.66222 69.4204 8.86352 69.1049 9.00563C68.7894 9.14773 68.4198 9.24838 67.9961 9.30759C67.969 9.30759 67.951 9.32535 67.942 9.36088C67.933 9.38456 67.9375 9.40824 67.9555 9.43193C68.0997 9.60955 68.28 9.83455 68.4964 10.1069C68.7128 10.3674 68.9336 10.6398 69.159 10.924C69.3844 11.2082 69.5962 11.4805 69.7946 11.7411C70.0019 12.0016 70.1642 12.2088 70.2814 12.3628C70.2994 12.3864 70.2994 12.416 70.2814 12.4516C70.2723 12.4752 70.2588 12.4871 70.2408 12.4871H67.1712C67.1441 12.4871 67.1306 12.4812 67.1306 12.4693C66.743 11.972 66.3283 11.445 65.8866 10.8885C65.4448 10.3201 65.0166 9.77534 64.6019 9.2543C64.1872 8.72142 63.8041 8.23591 63.4525 7.79777C63.11 7.35963 62.8395 7.01622 62.6412 6.76754C62.6231 6.74386 62.6186 6.72017 62.6277 6.69649C62.6367 6.66097 62.6547 6.6432 62.6817 6.6432H67.5769C67.8473 6.6432 68.0276 6.58399 68.1178 6.46558C68.2169 6.34716 68.2665 6.11033 68.2665 5.75507V3.65909C68.2665 3.44594 68.253 3.292 68.2259 3.19726C68.1989 3.09069 68.1674 3.01372 68.1313 2.96635C68.0952 2.90714 68.0366 2.85977 67.9555 2.82425C67.8744 2.78872 67.7482 2.77096 67.5769 2.77096H59.3417C59.3056 2.77096 59.2876 2.74728 59.2876 2.69991V0.746028C59.2876 0.544718 59.3372 0.378934 59.4364 0.248676C59.5355 0.118416 59.6617 0.0532869 59.815 0.0532869H67.9149Z"/>
<path d="M73.7283 3.42818C73.7283 2.27953 73.9537 1.421 74.4044 0.852603C74.8552 0.284201 75.5178 0 76.3922 0H83.0453C83.8927 0 84.5463 0.284201 85.006 0.852603C85.4658 1.421 85.6957 2.27953 85.6957 3.42818V9.12996C85.6957 10.2431 85.4658 11.0957 85.006 11.6878C84.5463 12.268 83.8927 12.5581 83.0453 12.5581H76.3922C75.5448 12.5581 74.8867 12.2739 74.418 11.7055C73.9582 11.1371 73.7283 10.2786 73.7283 9.12996V3.42818ZM75.973 8.95234C75.973 9.29575 76.0226 9.51482 76.1218 9.60955C76.1669 9.66876 76.2345 9.72205 76.3246 9.76941C76.4238 9.81678 76.559 9.84047 76.7303 9.84047H82.7072C82.8785 9.84047 83.0092 9.8227 83.0994 9.78718C83.1985 9.73981 83.2707 9.68652 83.3157 9.62732C83.3518 9.56811 83.3833 9.49114 83.4104 9.3964C83.4374 9.30167 83.451 9.15365 83.451 8.95234V3.58804C83.451 3.23279 83.3924 3.00187 83.2752 2.8953C83.158 2.77688 82.9687 2.71767 82.7072 2.71767H76.7303C76.559 2.71767 76.4238 2.74136 76.3246 2.78872C76.2345 2.82425 76.1669 2.87162 76.1218 2.93082C76.0226 3.02556 75.973 3.24463 75.973 3.58804V8.95234Z"/>
<path d="M89.6055 0.746028C89.6055 0.580244 89.6551 0.41446 89.7542 0.248676C89.8173 0.177625 89.8804 0.130258 89.9435 0.106574C90.0157 0.0710491 90.0833 0.0532869 90.1464 0.0532869H91.3363C91.3995 0.0532869 91.4626 0.0651284 91.5257 0.0888122C91.5978 0.112495 91.6609 0.165783 91.715 0.248676C91.7781 0.331567 91.8186 0.42038 91.8367 0.515114C91.8547 0.598006 91.8637 0.674977 91.8637 0.746028V8.89905C91.8637 9.10036 91.8773 9.2543 91.9043 9.36088C91.9313 9.46745 91.9629 9.54442 91.999 9.59179C92.044 9.63916 92.1026 9.6806 92.1747 9.71613C92.2559 9.75165 92.3776 9.76941 92.5398 9.76941H100.505C100.658 9.76941 100.784 9.83455 100.883 9.9648C100.982 10.0951 101.032 10.2608 101.032 10.4622V11.7943C101.032 11.8654 101.018 11.9483 100.991 12.043C100.973 12.1259 100.937 12.2088 100.883 12.2917C100.82 12.3746 100.752 12.4279 100.68 12.4516C100.617 12.4752 100.559 12.4871 100.505 12.4871H92.2153C91.3679 12.4871 90.7188 12.197 90.2681 11.6167C89.8263 11.0246 89.6055 10.172 89.6055 9.05891V0.746028Z"/>
<path d="M102.89 0.746028C102.89 0.580244 102.94 0.41446 103.039 0.248676C103.102 0.177625 103.165 0.130258 103.228 0.106574C103.3 0.0710491 103.368 0.0532869 103.431 0.0532869H104.621C104.684 0.0532869 104.747 0.0651284 104.81 0.0888122C104.883 0.112495 104.946 0.165783 105 0.248676C105.063 0.331567 105.103 0.42038 105.121 0.515114C105.139 0.598006 105.148 0.674977 105.148 0.746028V8.89905C105.148 9.10036 105.162 9.2543 105.189 9.36088C105.216 9.46745 105.248 9.54442 105.284 9.59179C105.329 9.63916 105.387 9.6806 105.459 9.71613C105.541 9.75165 105.662 9.76941 105.825 9.76941H113.789C113.943 9.76941 114.069 9.83455 114.168 9.9648C114.267 10.0951 114.317 10.2608 114.317 10.4622V11.7943C114.317 11.8654 114.303 11.9483 114.276 12.043C114.258 12.1259 114.222 12.2088 114.168 12.2917C114.105 12.3746 114.037 12.4279 113.965 12.4516C113.902 12.4752 113.843 12.4871 113.789 12.4871H105.5C104.653 12.4871 104.004 12.197 103.553 11.6167C103.111 11.0246 102.89 10.172 102.89 9.05891V0.746028Z"/>
<path d="M116.67 10.6398C116.67 10.5095 116.675 10.4385 116.684 10.4266C116.684 10.2727 116.72 10.1306 116.792 10.0003C116.855 9.91744 116.914 9.85823 116.968 9.8227C117.022 9.78718 117.094 9.76941 117.184 9.76941H127.056C127.173 9.76941 127.281 9.81086 127.38 9.89375C127.488 9.97665 127.552 10.101 127.57 10.2668C127.579 10.2786 127.583 10.3437 127.583 10.4622V11.7943C127.583 11.8654 127.574 11.9483 127.556 12.043C127.538 12.1259 127.502 12.2088 127.448 12.2917L127.407 12.345C127.353 12.4042 127.295 12.4456 127.231 12.4693C127.168 12.4812 127.11 12.4871 127.056 12.4871H117.198C117.072 12.4871 116.963 12.4456 116.873 12.3628C116.864 12.3509 116.855 12.345 116.846 12.345C116.837 12.3331 116.828 12.3154 116.819 12.2917C116.765 12.2207 116.725 12.1437 116.698 12.0608C116.679 11.9661 116.67 11.8832 116.67 11.8121V10.6398ZM116.684 0.69274C116.693 0.633531 116.702 0.568402 116.711 0.497352C116.729 0.41446 116.761 0.343409 116.806 0.2842L116.873 0.21315C116.936 0.1421 117.004 0.094733 117.076 0.0710492C117.148 0.0473661 117.211 0.0414453 117.265 0.0532869H127.002C127.101 0.0532869 127.182 0.0769705 127.245 0.124337C127.317 0.183546 127.371 0.242754 127.407 0.301963C127.452 0.34933 127.484 0.432222 127.502 0.550639C127.511 0.609847 127.515 0.657215 127.515 0.69274C127.524 0.716423 127.529 0.734185 127.529 0.746028V2.07822C127.529 2.16111 127.52 2.24993 127.502 2.34466C127.484 2.42755 127.443 2.51044 127.38 2.59333C127.317 2.66439 127.25 2.71175 127.177 2.73544C127.114 2.75912 127.056 2.77096 127.002 2.77096H117.198C117.153 2.77096 117.099 2.76504 117.036 2.7532C116.981 2.74136 116.932 2.70583 116.887 2.64662C116.869 2.63478 116.855 2.62886 116.846 2.62886C116.846 2.61702 116.837 2.60518 116.819 2.59333C116.756 2.51044 116.716 2.42755 116.698 2.34466C116.679 2.24993 116.67 2.16703 116.67 2.09598V0.905891C116.67 0.870366 116.67 0.83484 116.67 0.799314C116.679 0.76379 116.684 0.728265 116.684 0.69274ZM116.67 5.73731L116.698 5.52416C116.698 5.3939 116.738 5.26364 116.819 5.13338L116.887 5.06233C116.95 4.99128 117.018 4.94984 117.09 4.938C117.162 4.91431 117.229 4.90839 117.292 4.92023H126.88C126.925 4.92023 126.975 4.92615 127.029 4.938C127.092 4.94984 127.146 4.98536 127.191 5.04457C127.236 5.06825 127.277 5.12154 127.313 5.20443C127.349 5.28733 127.371 5.35838 127.38 5.41758C127.389 5.42943 127.394 5.49456 127.394 5.61297V6.9274C127.394 7.14055 127.344 7.31226 127.245 7.44252C127.155 7.56094 127.029 7.62014 126.866 7.62014H117.198C117.153 7.62014 117.099 7.61422 117.036 7.60238C116.981 7.59054 116.927 7.55502 116.873 7.49581C116.864 7.48396 116.855 7.47804 116.846 7.47804C116.837 7.4662 116.828 7.44844 116.819 7.42476C116.729 7.33002 116.679 7.20568 116.67 7.05174V5.73731Z"/>
<path d="M138.551 0.0532869C139.399 0.0532869 140.043 0.34933 140.485 0.941416C140.936 1.52166 141.161 2.36834 141.161 3.48146V5.95046C141.161 6.53071 141.107 7.02214 140.999 7.42476C140.9 7.81553 140.742 8.14118 140.526 8.4017C140.318 8.66222 140.057 8.86352 139.741 9.00563C139.426 9.14773 139.056 9.24838 138.632 9.30759C138.605 9.30759 138.587 9.32535 138.578 9.36088C138.569 9.38456 138.574 9.40824 138.592 9.43193C138.736 9.60955 138.916 9.83455 139.133 10.1069C139.349 10.3674 139.57 10.6398 139.795 10.924C140.021 11.2082 140.233 11.4805 140.431 11.7411C140.638 12.0016 140.8 12.2088 140.918 12.3628C140.936 12.3864 140.936 12.416 140.918 12.4516C140.909 12.4752 140.895 12.4871 140.877 12.4871H137.808C137.78 12.4871 137.767 12.4812 137.767 12.4693C137.379 11.972 136.965 11.445 136.523 10.8885C136.081 10.3201 135.653 9.77534 135.238 9.2543C134.824 8.72142 134.44 8.23591 134.089 7.79777C133.746 7.35963 133.476 7.01622 133.277 6.76754C133.259 6.74386 133.255 6.72017 133.264 6.69649C133.273 6.66097 133.291 6.6432 133.318 6.6432H138.213C138.484 6.6432 138.664 6.58399 138.754 6.46558C138.853 6.34716 138.903 6.11033 138.903 5.75507V3.65909C138.903 3.44594 138.889 3.292 138.862 3.19726C138.835 3.09069 138.804 3.01372 138.768 2.96635C138.732 2.90714 138.673 2.85977 138.592 2.82425C138.511 2.78872 138.384 2.77096 138.213 2.77096H129.978C129.942 2.77096 129.924 2.74728 129.924 2.69991V0.746028C129.924 0.544718 129.974 0.378934 130.073 0.248676C130.172 0.118416 130.298 0.0532869 130.451 0.0532869H138.551Z"/>
</mask>
<path d="M9.38458 0C11.1064 0 11.9674 1.14273 11.9674 3.42818V4.13868C11.9674 4.22157 11.9584 4.31038 11.9403 4.40512C11.9223 4.49985 11.8817 4.58274 11.8186 4.65379C11.7645 4.73669 11.7059 4.78997 11.6428 4.81366C11.5797 4.83734 11.5121 4.84918 11.44 4.84918H10.25C10.0968 4.84918 9.97055 4.78405 9.87139 4.65379C9.77223 4.51169 9.72264 4.33999 9.72264 4.13868V3.58804C9.72264 3.36305 9.70912 3.20318 9.68208 3.10845C9.65503 3.00188 9.62348 2.9249 9.58742 2.87754C9.56037 2.83017 9.50628 2.79464 9.42515 2.77096C9.35303 2.73544 9.23584 2.71767 9.07357 2.71767H3.00198C2.8307 2.71767 2.69548 2.74136 2.59631 2.78872C2.50616 2.82425 2.43855 2.87162 2.39347 2.93082C2.29431 3.02556 2.24473 3.24463 2.24473 3.58804V8.95234C2.24473 9.29575 2.29431 9.51482 2.39347 9.60955C2.43855 9.66876 2.50616 9.72205 2.59631 9.76941C2.69548 9.81678 2.8307 9.84047 3.00198 9.84047H9.07357C9.335 9.84047 9.50628 9.78718 9.58742 9.6806C9.67757 9.57403 9.72264 9.34904 9.72264 9.00563V8.79247C9.72264 8.70958 9.73166 8.62669 9.74969 8.5438C9.77673 8.44906 9.8173 8.36025 9.87139 8.27736C9.9976 8.1471 10.1238 8.08197 10.25 8.08197H11.44C11.6023 8.08197 11.7285 8.15302 11.8186 8.29512C11.9178 8.42538 11.9674 8.59116 11.9674 8.79247V9.16549C11.9674 10.2786 11.7465 11.1253 11.3048 11.7055C10.8721 12.2739 10.232 12.5581 9.38458 12.5581H2.66392C1.81652 12.5581 1.15842 12.2739 0.689645 11.7055C0.229882 11.1371 0 10.2786 0 9.12996V3.42818C0 2.27953 0.225374 1.421 0.676123 0.852603C1.12687 0.284201 1.78947 0 2.66392 0H9.38458Z" fill="url(#paint20_linear_2334_298)" fill-opacity="0.5"/>
<path d="M15.1882 3.42818C15.1882 2.27953 15.4136 1.421 15.8644 0.852603C16.3151 0.284201 16.9777 0 17.8522 0H24.5052C25.3526 0 26.0062 0.284201 26.466 0.852603C26.9257 1.421 27.1556 2.27953 27.1556 3.42818V9.12996C27.1556 10.2431 26.9257 11.0957 26.466 11.6878C26.0062 12.268 25.3526 12.5581 24.5052 12.5581H17.8522C17.0048 12.5581 16.3467 12.2739 15.8779 11.7055C15.4181 11.1371 15.1882 10.2786 15.1882 9.12996V3.42818ZM17.433 8.95234C17.433 9.29575 17.4826 9.51482 17.5817 9.60955C17.6268 9.66876 17.6944 9.72205 17.7846 9.76941C17.8837 9.81678 18.0189 9.84047 18.1902 9.84047H24.1672C24.3384 9.84047 24.4692 9.8227 24.5593 9.78718C24.6585 9.73981 24.7306 9.68652 24.7757 9.62732C24.8117 9.56811 24.8433 9.49114 24.8703 9.3964C24.8974 9.30167 24.9109 9.15365 24.9109 8.95234V3.58804C24.9109 3.23279 24.8523 3.00187 24.7351 2.8953C24.6179 2.77688 24.4286 2.71767 24.1672 2.71767H18.1902C18.0189 2.71767 17.8837 2.74136 17.7846 2.78872C17.6944 2.82425 17.6268 2.87162 17.5817 2.93082C17.4826 3.02556 17.433 3.24463 17.433 3.58804V8.95234Z" fill="url(#paint21_linear_2334_298)" fill-opacity="0.5"/>
<path d="M33.1897 0.0532869C33.3159 0.0532869 33.4151 0.088812 33.4872 0.159863C33.5593 0.219071 33.6179 0.27828 33.663 0.337489C33.672 0.337489 33.681 0.343409 33.69 0.355251L40.5324 8.79247V0.746028C40.5324 0.544718 40.582 0.378934 40.6811 0.248676C40.7803 0.118416 40.9065 0.0532869 41.0598 0.0532869H42.2497C42.403 0.0532869 42.5292 0.118416 42.6284 0.248676C42.7365 0.378934 42.7906 0.544718 42.7906 0.746028V11.7943C42.7906 11.8772 42.7816 11.9661 42.7636 12.0608C42.7456 12.1437 42.705 12.2207 42.6419 12.2917C42.5878 12.3746 42.5247 12.4279 42.4526 12.4516C42.3805 12.4752 42.3128 12.4871 42.2497 12.4871H40.7758C40.6496 12.4871 40.5504 12.4575 40.4783 12.3983C40.4062 12.3272 40.3476 12.268 40.3025 12.2207L40.2755 12.1851L33.4196 3.7479V11.7943C33.4196 11.8654 33.4106 11.9483 33.3925 12.043C33.3745 12.1259 33.3339 12.2088 33.2708 12.2917C33.2167 12.3746 33.1536 12.4279 33.0815 12.4516C33.0184 12.4752 32.9553 12.4871 32.8922 12.4871H31.7022C31.549 12.4871 31.4228 12.422 31.3236 12.2917C31.2244 12.1614 31.1749 11.9957 31.1749 11.7943V0.746028C31.1749 0.544718 31.2244 0.378934 31.3236 0.248676C31.4228 0.118416 31.549 0.0532869 31.7022 0.0532869H33.1897Z" fill="url(#paint22_linear_2334_298)" fill-opacity="0.5"/>
<path d="M56.3266 0.0532869C56.3897 0.0532869 56.4528 0.0710491 56.5159 0.106574C56.5881 0.130258 56.6557 0.177625 56.7188 0.248676C56.8179 0.41446 56.8675 0.580244 56.8675 0.746028V2.07822C56.8675 2.29137 56.8134 2.46308 56.7052 2.59333C56.6061 2.71175 56.4799 2.77096 56.3266 2.77096H52.1076V11.7943C52.1076 11.8654 52.0986 11.9483 52.0806 12.043C52.0625 12.1259 52.022 12.2088 51.9589 12.2917C51.9048 12.3746 51.8417 12.4279 51.7696 12.4516C51.7064 12.4752 51.6433 12.4871 51.5802 12.4871H50.4173C50.3542 12.4871 50.2866 12.4752 50.2145 12.4516C50.1514 12.4279 50.0928 12.3746 50.0387 12.2917C49.9756 12.2088 49.935 12.1259 49.917 12.043C49.8989 11.9483 49.8899 11.8654 49.8899 11.7943V2.77096H45.6574C45.6033 2.77096 45.5402 2.75912 45.4681 2.73544C45.405 2.71175 45.3419 2.66439 45.2788 2.59333C45.2157 2.51044 45.1751 2.42755 45.1571 2.34466C45.139 2.24993 45.13 2.16111 45.13 2.07822V0.746028C45.13 0.544718 45.1796 0.378934 45.2788 0.248676C45.3779 0.118416 45.5041 0.0532869 45.6574 0.0532869H56.3266Z" fill="url(#paint23_linear_2334_298)" fill-opacity="0.5"/>
<path d="M67.9149 0.0532869C68.7623 0.0532869 69.4069 0.34933 69.8486 0.941416C70.2994 1.52166 70.5248 2.36834 70.5248 3.48146V5.95046C70.5248 6.53071 70.4707 7.02214 70.3625 7.42476C70.2633 7.81553 70.1056 8.14118 69.8892 8.4017C69.6819 8.66222 69.4204 8.86352 69.1049 9.00563C68.7894 9.14773 68.4198 9.24838 67.9961 9.30759C67.969 9.30759 67.951 9.32535 67.942 9.36088C67.933 9.38456 67.9375 9.40824 67.9555 9.43193C68.0997 9.60955 68.28 9.83455 68.4964 10.1069C68.7128 10.3674 68.9336 10.6398 69.159 10.924C69.3844 11.2082 69.5962 11.4805 69.7946 11.7411C70.0019 12.0016 70.1642 12.2088 70.2814 12.3628C70.2994 12.3864 70.2994 12.416 70.2814 12.4516C70.2723 12.4752 70.2588 12.4871 70.2408 12.4871H67.1712C67.1441 12.4871 67.1306 12.4812 67.1306 12.4693C66.743 11.972 66.3283 11.445 65.8866 10.8885C65.4448 10.3201 65.0166 9.77534 64.6019 9.2543C64.1872 8.72142 63.8041 8.23591 63.4525 7.79777C63.11 7.35963 62.8395 7.01622 62.6412 6.76754C62.6231 6.74386 62.6186 6.72017 62.6277 6.69649C62.6367 6.66097 62.6547 6.6432 62.6817 6.6432H67.5769C67.8473 6.6432 68.0276 6.58399 68.1178 6.46558C68.2169 6.34716 68.2665 6.11033 68.2665 5.75507V3.65909C68.2665 3.44594 68.253 3.292 68.2259 3.19726C68.1989 3.09069 68.1674 3.01372 68.1313 2.96635C68.0952 2.90714 68.0366 2.85977 67.9555 2.82425C67.8744 2.78872 67.7482 2.77096 67.5769 2.77096H59.3417C59.3056 2.77096 59.2876 2.74728 59.2876 2.69991V0.746028C59.2876 0.544718 59.3372 0.378934 59.4364 0.248676C59.5355 0.118416 59.6617 0.0532869 59.815 0.0532869H67.9149Z" fill="url(#paint24_linear_2334_298)" fill-opacity="0.5"/>
<path d="M73.7283 3.42818C73.7283 2.27953 73.9537 1.421 74.4044 0.852603C74.8552 0.284201 75.5178 0 76.3922 0H83.0453C83.8927 0 84.5463 0.284201 85.006 0.852603C85.4658 1.421 85.6957 2.27953 85.6957 3.42818V9.12996C85.6957 10.2431 85.4658 11.0957 85.006 11.6878C84.5463 12.268 83.8927 12.5581 83.0453 12.5581H76.3922C75.5448 12.5581 74.8867 12.2739 74.418 11.7055C73.9582 11.1371 73.7283 10.2786 73.7283 9.12996V3.42818ZM75.973 8.95234C75.973 9.29575 76.0226 9.51482 76.1218 9.60955C76.1669 9.66876 76.2345 9.72205 76.3246 9.76941C76.4238 9.81678 76.559 9.84047 76.7303 9.84047H82.7072C82.8785 9.84047 83.0092 9.8227 83.0994 9.78718C83.1985 9.73981 83.2707 9.68652 83.3157 9.62732C83.3518 9.56811 83.3833 9.49114 83.4104 9.3964C83.4374 9.30167 83.451 9.15365 83.451 8.95234V3.58804C83.451 3.23279 83.3924 3.00187 83.2752 2.8953C83.158 2.77688 82.9687 2.71767 82.7072 2.71767H76.7303C76.559 2.71767 76.4238 2.74136 76.3246 2.78872C76.2345 2.82425 76.1669 2.87162 76.1218 2.93082C76.0226 3.02556 75.973 3.24463 75.973 3.58804V8.95234Z" fill="url(#paint25_linear_2334_298)" fill-opacity="0.5"/>
<path d="M89.6055 0.746028C89.6055 0.580244 89.6551 0.41446 89.7542 0.248676C89.8173 0.177625 89.8804 0.130258 89.9435 0.106574C90.0157 0.0710491 90.0833 0.0532869 90.1464 0.0532869H91.3363C91.3995 0.0532869 91.4626 0.0651284 91.5257 0.0888122C91.5978 0.112495 91.6609 0.165783 91.715 0.248676C91.7781 0.331567 91.8186 0.42038 91.8367 0.515114C91.8547 0.598006 91.8637 0.674977 91.8637 0.746028V8.89905C91.8637 9.10036 91.8773 9.2543 91.9043 9.36088C91.9313 9.46745 91.9629 9.54442 91.999 9.59179C92.044 9.63916 92.1026 9.6806 92.1747 9.71613C92.2559 9.75165 92.3776 9.76941 92.5398 9.76941H100.505C100.658 9.76941 100.784 9.83455 100.883 9.9648C100.982 10.0951 101.032 10.2608 101.032 10.4622V11.7943C101.032 11.8654 101.018 11.9483 100.991 12.043C100.973 12.1259 100.937 12.2088 100.883 12.2917C100.82 12.3746 100.752 12.4279 100.68 12.4516C100.617 12.4752 100.559 12.4871 100.505 12.4871H92.2153C91.3679 12.4871 90.7188 12.197 90.2681 11.6167C89.8263 11.0246 89.6055 10.172 89.6055 9.05891V0.746028Z" fill="url(#paint26_linear_2334_298)" fill-opacity="0.5"/>
<path d="M102.89 0.746028C102.89 0.580244 102.94 0.41446 103.039 0.248676C103.102 0.177625 103.165 0.130258 103.228 0.106574C103.3 0.0710491 103.368 0.0532869 103.431 0.0532869H104.621C104.684 0.0532869 104.747 0.0651284 104.81 0.0888122C104.883 0.112495 104.946 0.165783 105 0.248676C105.063 0.331567 105.103 0.42038 105.121 0.515114C105.139 0.598006 105.148 0.674977 105.148 0.746028V8.89905C105.148 9.10036 105.162 9.2543 105.189 9.36088C105.216 9.46745 105.248 9.54442 105.284 9.59179C105.329 9.63916 105.387 9.6806 105.459 9.71613C105.541 9.75165 105.662 9.76941 105.825 9.76941H113.789C113.943 9.76941 114.069 9.83455 114.168 9.9648C114.267 10.0951 114.317 10.2608 114.317 10.4622V11.7943C114.317 11.8654 114.303 11.9483 114.276 12.043C114.258 12.1259 114.222 12.2088 114.168 12.2917C114.105 12.3746 114.037 12.4279 113.965 12.4516C113.902 12.4752 113.843 12.4871 113.789 12.4871H105.5C104.653 12.4871 104.004 12.197 103.553 11.6167C103.111 11.0246 102.89 10.172 102.89 9.05891V0.746028Z" fill="url(#paint27_linear_2334_298)" fill-opacity="0.5"/>
<path d="M116.67 10.6398C116.67 10.5095 116.675 10.4385 116.684 10.4266C116.684 10.2727 116.72 10.1306 116.792 10.0003C116.855 9.91744 116.914 9.85823 116.968 9.8227C117.022 9.78718 117.094 9.76941 117.184 9.76941H127.056C127.173 9.76941 127.281 9.81086 127.38 9.89375C127.488 9.97665 127.552 10.101 127.57 10.2668C127.579 10.2786 127.583 10.3437 127.583 10.4622V11.7943C127.583 11.8654 127.574 11.9483 127.556 12.043C127.538 12.1259 127.502 12.2088 127.448 12.2917L127.407 12.345C127.353 12.4042 127.295 12.4456 127.231 12.4693C127.168 12.4812 127.11 12.4871 127.056 12.4871H117.198C117.072 12.4871 116.963 12.4456 116.873 12.3628C116.864 12.3509 116.855 12.345 116.846 12.345C116.837 12.3331 116.828 12.3154 116.819 12.2917C116.765 12.2207 116.725 12.1437 116.698 12.0608C116.679 11.9661 116.67 11.8832 116.67 11.8121V10.6398ZM116.684 0.69274C116.693 0.633531 116.702 0.568402 116.711 0.497352C116.729 0.41446 116.761 0.343409 116.806 0.2842L116.873 0.21315C116.936 0.1421 117.004 0.094733 117.076 0.0710492C117.148 0.0473661 117.211 0.0414453 117.265 0.0532869H127.002C127.101 0.0532869 127.182 0.0769705 127.245 0.124337C127.317 0.183546 127.371 0.242754 127.407 0.301963C127.452 0.34933 127.484 0.432222 127.502 0.550639C127.511 0.609847 127.515 0.657215 127.515 0.69274C127.524 0.716423 127.529 0.734185 127.529 0.746028V2.07822C127.529 2.16111 127.52 2.24993 127.502 2.34466C127.484 2.42755 127.443 2.51044 127.38 2.59333C127.317 2.66439 127.25 2.71175 127.177 2.73544C127.114 2.75912 127.056 2.77096 127.002 2.77096H117.198C117.153 2.77096 117.099 2.76504 117.036 2.7532C116.981 2.74136 116.932 2.70583 116.887 2.64662C116.869 2.63478 116.855 2.62886 116.846 2.62886C116.846 2.61702 116.837 2.60518 116.819 2.59333C116.756 2.51044 116.716 2.42755 116.698 2.34466C116.679 2.24993 116.67 2.16703 116.67 2.09598V0.905891C116.67 0.870366 116.67 0.83484 116.67 0.799314C116.679 0.76379 116.684 0.728265 116.684 0.69274ZM116.67 5.73731L116.698 5.52416C116.698 5.3939 116.738 5.26364 116.819 5.13338L116.887 5.06233C116.95 4.99128 117.018 4.94984 117.09 4.938C117.162 4.91431 117.229 4.90839 117.292 4.92023H126.88C126.925 4.92023 126.975 4.92615 127.029 4.938C127.092 4.94984 127.146 4.98536 127.191 5.04457C127.236 5.06825 127.277 5.12154 127.313 5.20443C127.349 5.28733 127.371 5.35838 127.38 5.41758C127.389 5.42943 127.394 5.49456 127.394 5.61297V6.9274C127.394 7.14055 127.344 7.31226 127.245 7.44252C127.155 7.56094 127.029 7.62014 126.866 7.62014H117.198C117.153 7.62014 117.099 7.61422 117.036 7.60238C116.981 7.59054 116.927 7.55502 116.873 7.49581C116.864 7.48396 116.855 7.47804 116.846 7.47804C116.837 7.4662 116.828 7.44844 116.819 7.42476C116.729 7.33002 116.679 7.20568 116.67 7.05174V5.73731Z" fill="url(#paint28_linear_2334_298)" fill-opacity="0.5"/>
<path d="M138.551 0.0532869C139.399 0.0532869 140.043 0.34933 140.485 0.941416C140.936 1.52166 141.161 2.36834 141.161 3.48146V5.95046C141.161 6.53071 141.107 7.02214 140.999 7.42476C140.9 7.81553 140.742 8.14118 140.526 8.4017C140.318 8.66222 140.057 8.86352 139.741 9.00563C139.426 9.14773 139.056 9.24838 138.632 9.30759C138.605 9.30759 138.587 9.32535 138.578 9.36088C138.569 9.38456 138.574 9.40824 138.592 9.43193C138.736 9.60955 138.916 9.83455 139.133 10.1069C139.349 10.3674 139.57 10.6398 139.795 10.924C140.021 11.2082 140.233 11.4805 140.431 11.7411C140.638 12.0016 140.8 12.2088 140.918 12.3628C140.936 12.3864 140.936 12.416 140.918 12.4516C140.909 12.4752 140.895 12.4871 140.877 12.4871H137.808C137.78 12.4871 137.767 12.4812 137.767 12.4693C137.379 11.972 136.965 11.445 136.523 10.8885C136.081 10.3201 135.653 9.77534 135.238 9.2543C134.824 8.72142 134.44 8.23591 134.089 7.79777C133.746 7.35963 133.476 7.01622 133.277 6.76754C133.259 6.74386 133.255 6.72017 133.264 6.69649C133.273 6.66097 133.291 6.6432 133.318 6.6432H138.213C138.484 6.6432 138.664 6.58399 138.754 6.46558C138.853 6.34716 138.903 6.11033 138.903 5.75507V3.65909C138.903 3.44594 138.889 3.292 138.862 3.19726C138.835 3.09069 138.804 3.01372 138.768 2.96635C138.732 2.90714 138.673 2.85977 138.592 2.82425C138.511 2.78872 138.384 2.77096 138.213 2.77096H129.978C129.942 2.77096 129.924 2.74728 129.924 2.69991V0.746028C129.924 0.544718 129.974 0.378934 130.073 0.248676C130.172 0.118416 130.298 0.0532869 130.451 0.0532869H138.551Z" fill="url(#paint29_linear_2334_298)" fill-opacity="0.5"/>
<path d="M9.38458 0C11.1064 0 11.9674 1.14273 11.9674 3.42818V4.13868C11.9674 4.22157 11.9584 4.31038 11.9403 4.40512C11.9223 4.49985 11.8817 4.58274 11.8186 4.65379C11.7645 4.73669 11.7059 4.78997 11.6428 4.81366C11.5797 4.83734 11.5121 4.84918 11.44 4.84918H10.25C10.0968 4.84918 9.97055 4.78405 9.87139 4.65379C9.77223 4.51169 9.72264 4.33999 9.72264 4.13868V3.58804C9.72264 3.36305 9.70912 3.20318 9.68208 3.10845C9.65503 3.00188 9.62348 2.9249 9.58742 2.87754C9.56037 2.83017 9.50628 2.79464 9.42515 2.77096C9.35303 2.73544 9.23584 2.71767 9.07357 2.71767H3.00198C2.8307 2.71767 2.69548 2.74136 2.59631 2.78872C2.50616 2.82425 2.43855 2.87162 2.39347 2.93082C2.29431 3.02556 2.24473 3.24463 2.24473 3.58804V8.95234C2.24473 9.29575 2.29431 9.51482 2.39347 9.60955C2.43855 9.66876 2.50616 9.72205 2.59631 9.76941C2.69548 9.81678 2.8307 9.84047 3.00198 9.84047H9.07357C9.335 9.84047 9.50628 9.78718 9.58742 9.6806C9.67757 9.57403 9.72264 9.34904 9.72264 9.00563V8.79247C9.72264 8.70958 9.73166 8.62669 9.74969 8.5438C9.77673 8.44906 9.8173 8.36025 9.87139 8.27736C9.9976 8.1471 10.1238 8.08197 10.25 8.08197H11.44C11.6023 8.08197 11.7285 8.15302 11.8186 8.29512C11.9178 8.42538 11.9674 8.59116 11.9674 8.79247V9.16549C11.9674 10.2786 11.7465 11.1253 11.3048 11.7055C10.8721 12.2739 10.232 12.5581 9.38458 12.5581H2.66392C1.81652 12.5581 1.15842 12.2739 0.689645 11.7055C0.229882 11.1371 0 10.2786 0 9.12996V3.42818C0 2.27953 0.225374 1.421 0.676123 0.852603C1.12687 0.284201 1.78947 0 2.66392 0H9.38458Z" stroke="url(#paint30_linear_2334_298)" stroke-opacity="0.65" mask="url(#path-2-inside-2_2334_298)"/>
<path d="M15.1882 3.42818C15.1882 2.27953 15.4136 1.421 15.8644 0.852603C16.3151 0.284201 16.9777 0 17.8522 0H24.5052C25.3526 0 26.0062 0.284201 26.466 0.852603C26.9257 1.421 27.1556 2.27953 27.1556 3.42818V9.12996C27.1556 10.2431 26.9257 11.0957 26.466 11.6878C26.0062 12.268 25.3526 12.5581 24.5052 12.5581H17.8522C17.0048 12.5581 16.3467 12.2739 15.8779 11.7055C15.4181 11.1371 15.1882 10.2786 15.1882 9.12996V3.42818ZM17.433 8.95234C17.433 9.29575 17.4826 9.51482 17.5817 9.60955C17.6268 9.66876 17.6944 9.72205 17.7846 9.76941C17.8837 9.81678 18.0189 9.84047 18.1902 9.84047H24.1672C24.3384 9.84047 24.4692 9.8227 24.5593 9.78718C24.6585 9.73981 24.7306 9.68652 24.7757 9.62732C24.8117 9.56811 24.8433 9.49114 24.8703 9.3964C24.8974 9.30167 24.9109 9.15365 24.9109 8.95234V3.58804C24.9109 3.23279 24.8523 3.00187 24.7351 2.8953C24.6179 2.77688 24.4286 2.71767 24.1672 2.71767H18.1902C18.0189 2.71767 17.8837 2.74136 17.7846 2.78872C17.6944 2.82425 17.6268 2.87162 17.5817 2.93082C17.4826 3.02556 17.433 3.24463 17.433 3.58804V8.95234Z" stroke="url(#paint31_linear_2334_298)" stroke-opacity="0.65" mask="url(#path-2-inside-2_2334_298)"/>
<path d="M33.1897 0.0532869C33.3159 0.0532869 33.4151 0.088812 33.4872 0.159863C33.5593 0.219071 33.6179 0.27828 33.663 0.337489C33.672 0.337489 33.681 0.343409 33.69 0.355251L40.5324 8.79247V0.746028C40.5324 0.544718 40.582 0.378934 40.6811 0.248676C40.7803 0.118416 40.9065 0.0532869 41.0598 0.0532869H42.2497C42.403 0.0532869 42.5292 0.118416 42.6284 0.248676C42.7365 0.378934 42.7906 0.544718 42.7906 0.746028V11.7943C42.7906 11.8772 42.7816 11.9661 42.7636 12.0608C42.7456 12.1437 42.705 12.2207 42.6419 12.2917C42.5878 12.3746 42.5247 12.4279 42.4526 12.4516C42.3805 12.4752 42.3128 12.4871 42.2497 12.4871H40.7758C40.6496 12.4871 40.5504 12.4575 40.4783 12.3983C40.4062 12.3272 40.3476 12.268 40.3025 12.2207L40.2755 12.1851L33.4196 3.7479V11.7943C33.4196 11.8654 33.4106 11.9483 33.3925 12.043C33.3745 12.1259 33.3339 12.2088 33.2708 12.2917C33.2167 12.3746 33.1536 12.4279 33.0815 12.4516C33.0184 12.4752 32.9553 12.4871 32.8922 12.4871H31.7022C31.549 12.4871 31.4228 12.422 31.3236 12.2917C31.2244 12.1614 31.1749 11.9957 31.1749 11.7943V0.746028C31.1749 0.544718 31.2244 0.378934 31.3236 0.248676C31.4228 0.118416 31.549 0.0532869 31.7022 0.0532869H33.1897Z" stroke="url(#paint32_linear_2334_298)" stroke-opacity="0.65" mask="url(#path-2-inside-2_2334_298)"/>
<path d="M56.3266 0.0532869C56.3897 0.0532869 56.4528 0.0710491 56.5159 0.106574C56.5881 0.130258 56.6557 0.177625 56.7188 0.248676C56.8179 0.41446 56.8675 0.580244 56.8675 0.746028V2.07822C56.8675 2.29137 56.8134 2.46308 56.7052 2.59333C56.6061 2.71175 56.4799 2.77096 56.3266 2.77096H52.1076V11.7943C52.1076 11.8654 52.0986 11.9483 52.0806 12.043C52.0625 12.1259 52.022 12.2088 51.9589 12.2917C51.9048 12.3746 51.8417 12.4279 51.7696 12.4516C51.7064 12.4752 51.6433 12.4871 51.5802 12.4871H50.4173C50.3542 12.4871 50.2866 12.4752 50.2145 12.4516C50.1514 12.4279 50.0928 12.3746 50.0387 12.2917C49.9756 12.2088 49.935 12.1259 49.917 12.043C49.8989 11.9483 49.8899 11.8654 49.8899 11.7943V2.77096H45.6574C45.6033 2.77096 45.5402 2.75912 45.4681 2.73544C45.405 2.71175 45.3419 2.66439 45.2788 2.59333C45.2157 2.51044 45.1751 2.42755 45.1571 2.34466C45.139 2.24993 45.13 2.16111 45.13 2.07822V0.746028C45.13 0.544718 45.1796 0.378934 45.2788 0.248676C45.3779 0.118416 45.5041 0.0532869 45.6574 0.0532869H56.3266Z" stroke="url(#paint33_linear_2334_298)" stroke-opacity="0.65" mask="url(#path-2-inside-2_2334_298)"/>
<path d="M67.9149 0.0532869C68.7623 0.0532869 69.4069 0.34933 69.8486 0.941416C70.2994 1.52166 70.5248 2.36834 70.5248 3.48146V5.95046C70.5248 6.53071 70.4707 7.02214 70.3625 7.42476C70.2633 7.81553 70.1056 8.14118 69.8892 8.4017C69.6819 8.66222 69.4204 8.86352 69.1049 9.00563C68.7894 9.14773 68.4198 9.24838 67.9961 9.30759C67.969 9.30759 67.951 9.32535 67.942 9.36088C67.933 9.38456 67.9375 9.40824 67.9555 9.43193C68.0997 9.60955 68.28 9.83455 68.4964 10.1069C68.7128 10.3674 68.9336 10.6398 69.159 10.924C69.3844 11.2082 69.5962 11.4805 69.7946 11.7411C70.0019 12.0016 70.1642 12.2088 70.2814 12.3628C70.2994 12.3864 70.2994 12.416 70.2814 12.4516C70.2723 12.4752 70.2588 12.4871 70.2408 12.4871H67.1712C67.1441 12.4871 67.1306 12.4812 67.1306 12.4693C66.743 11.972 66.3283 11.445 65.8866 10.8885C65.4448 10.3201 65.0166 9.77534 64.6019 9.2543C64.1872 8.72142 63.8041 8.23591 63.4525 7.79777C63.11 7.35963 62.8395 7.01622 62.6412 6.76754C62.6231 6.74386 62.6186 6.72017 62.6277 6.69649C62.6367 6.66097 62.6547 6.6432 62.6817 6.6432H67.5769C67.8473 6.6432 68.0276 6.58399 68.1178 6.46558C68.2169 6.34716 68.2665 6.11033 68.2665 5.75507V3.65909C68.2665 3.44594 68.253 3.292 68.2259 3.19726C68.1989 3.09069 68.1674 3.01372 68.1313 2.96635C68.0952 2.90714 68.0366 2.85977 67.9555 2.82425C67.8744 2.78872 67.7482 2.77096 67.5769 2.77096H59.3417C59.3056 2.77096 59.2876 2.74728 59.2876 2.69991V0.746028C59.2876 0.544718 59.3372 0.378934 59.4364 0.248676C59.5355 0.118416 59.6617 0.0532869 59.815 0.0532869H67.9149Z" stroke="url(#paint34_linear_2334_298)" stroke-opacity="0.65" mask="url(#path-2-inside-2_2334_298)"/>
<path d="M73.7283 3.42818C73.7283 2.27953 73.9537 1.421 74.4044 0.852603C74.8552 0.284201 75.5178 0 76.3922 0H83.0453C83.8927 0 84.5463 0.284201 85.006 0.852603C85.4658 1.421 85.6957 2.27953 85.6957 3.42818V9.12996C85.6957 10.2431 85.4658 11.0957 85.006 11.6878C84.5463 12.268 83.8927 12.5581 83.0453 12.5581H76.3922C75.5448 12.5581 74.8867 12.2739 74.418 11.7055C73.9582 11.1371 73.7283 10.2786 73.7283 9.12996V3.42818ZM75.973 8.95234C75.973 9.29575 76.0226 9.51482 76.1218 9.60955C76.1669 9.66876 76.2345 9.72205 76.3246 9.76941C76.4238 9.81678 76.559 9.84047 76.7303 9.84047H82.7072C82.8785 9.84047 83.0092 9.8227 83.0994 9.78718C83.1985 9.73981 83.2707 9.68652 83.3157 9.62732C83.3518 9.56811 83.3833 9.49114 83.4104 9.3964C83.4374 9.30167 83.451 9.15365 83.451 8.95234V3.58804C83.451 3.23279 83.3924 3.00187 83.2752 2.8953C83.158 2.77688 82.9687 2.71767 82.7072 2.71767H76.7303C76.559 2.71767 76.4238 2.74136 76.3246 2.78872C76.2345 2.82425 76.1669 2.87162 76.1218 2.93082C76.0226 3.02556 75.973 3.24463 75.973 3.58804V8.95234Z" stroke="url(#paint35_linear_2334_298)" stroke-opacity="0.65" mask="url(#path-2-inside-2_2334_298)"/>
<path d="M89.6055 0.746028C89.6055 0.580244 89.6551 0.41446 89.7542 0.248676C89.8173 0.177625 89.8804 0.130258 89.9435 0.106574C90.0157 0.0710491 90.0833 0.0532869 90.1464 0.0532869H91.3363C91.3995 0.0532869 91.4626 0.0651284 91.5257 0.0888122C91.5978 0.112495 91.6609 0.165783 91.715 0.248676C91.7781 0.331567 91.8186 0.42038 91.8367 0.515114C91.8547 0.598006 91.8637 0.674977 91.8637 0.746028V8.89905C91.8637 9.10036 91.8773 9.2543 91.9043 9.36088C91.9313 9.46745 91.9629 9.54442 91.999 9.59179C92.044 9.63916 92.1026 9.6806 92.1747 9.71613C92.2559 9.75165 92.3776 9.76941 92.5398 9.76941H100.505C100.658 9.76941 100.784 9.83455 100.883 9.9648C100.982 10.0951 101.032 10.2608 101.032 10.4622V11.7943C101.032 11.8654 101.018 11.9483 100.991 12.043C100.973 12.1259 100.937 12.2088 100.883 12.2917C100.82 12.3746 100.752 12.4279 100.68 12.4516C100.617 12.4752 100.559 12.4871 100.505 12.4871H92.2153C91.3679 12.4871 90.7188 12.197 90.2681 11.6167C89.8263 11.0246 89.6055 10.172 89.6055 9.05891V0.746028Z" stroke="url(#paint36_linear_2334_298)" stroke-opacity="0.65" mask="url(#path-2-inside-2_2334_298)"/>
<path d="M102.89 0.746028C102.89 0.580244 102.94 0.41446 103.039 0.248676C103.102 0.177625 103.165 0.130258 103.228 0.106574C103.3 0.0710491 103.368 0.0532869 103.431 0.0532869H104.621C104.684 0.0532869 104.747 0.0651284 104.81 0.0888122C104.883 0.112495 104.946 0.165783 105 0.248676C105.063 0.331567 105.103 0.42038 105.121 0.515114C105.139 0.598006 105.148 0.674977 105.148 0.746028V8.89905C105.148 9.10036 105.162 9.2543 105.189 9.36088C105.216 9.46745 105.248 9.54442 105.284 9.59179C105.329 9.63916 105.387 9.6806 105.459 9.71613C105.541 9.75165 105.662 9.76941 105.825 9.76941H113.789C113.943 9.76941 114.069 9.83455 114.168 9.9648C114.267 10.0951 114.317 10.2608 114.317 10.4622V11.7943C114.317 11.8654 114.303 11.9483 114.276 12.043C114.258 12.1259 114.222 12.2088 114.168 12.2917C114.105 12.3746 114.037 12.4279 113.965 12.4516C113.902 12.4752 113.843 12.4871 113.789 12.4871H105.5C104.653 12.4871 104.004 12.197 103.553 11.6167C103.111 11.0246 102.89 10.172 102.89 9.05891V0.746028Z" stroke="url(#paint37_linear_2334_298)" stroke-opacity="0.65" mask="url(#path-2-inside-2_2334_298)"/>
<path d="M116.67 10.6398C116.67 10.5095 116.675 10.4385 116.684 10.4266C116.684 10.2727 116.72 10.1306 116.792 10.0003C116.855 9.91744 116.914 9.85823 116.968 9.8227C117.022 9.78718 117.094 9.76941 117.184 9.76941H127.056C127.173 9.76941 127.281 9.81086 127.38 9.89375C127.488 9.97665 127.552 10.101 127.57 10.2668C127.579 10.2786 127.583 10.3437 127.583 10.4622V11.7943C127.583 11.8654 127.574 11.9483 127.556 12.043C127.538 12.1259 127.502 12.2088 127.448 12.2917L127.407 12.345C127.353 12.4042 127.295 12.4456 127.231 12.4693C127.168 12.4812 127.11 12.4871 127.056 12.4871H117.198C117.072 12.4871 116.963 12.4456 116.873 12.3628C116.864 12.3509 116.855 12.345 116.846 12.345C116.837 12.3331 116.828 12.3154 116.819 12.2917C116.765 12.2207 116.725 12.1437 116.698 12.0608C116.679 11.9661 116.67 11.8832 116.67 11.8121V10.6398ZM116.684 0.69274C116.693 0.633531 116.702 0.568402 116.711 0.497352C116.729 0.41446 116.761 0.343409 116.806 0.2842L116.873 0.21315C116.936 0.1421 117.004 0.094733 117.076 0.0710492C117.148 0.0473661 117.211 0.0414453 117.265 0.0532869H127.002C127.101 0.0532869 127.182 0.0769705 127.245 0.124337C127.317 0.183546 127.371 0.242754 127.407 0.301963C127.452 0.34933 127.484 0.432222 127.502 0.550639C127.511 0.609847 127.515 0.657215 127.515 0.69274C127.524 0.716423 127.529 0.734185 127.529 0.746028V2.07822C127.529 2.16111 127.52 2.24993 127.502 2.34466C127.484 2.42755 127.443 2.51044 127.38 2.59333C127.317 2.66439 127.25 2.71175 127.177 2.73544C127.114 2.75912 127.056 2.77096 127.002 2.77096H117.198C117.153 2.77096 117.099 2.76504 117.036 2.7532C116.981 2.74136 116.932 2.70583 116.887 2.64662C116.869 2.63478 116.855 2.62886 116.846 2.62886C116.846 2.61702 116.837 2.60518 116.819 2.59333C116.756 2.51044 116.716 2.42755 116.698 2.34466C116.679 2.24993 116.67 2.16703 116.67 2.09598V0.905891C116.67 0.870366 116.67 0.83484 116.67 0.799314C116.679 0.76379 116.684 0.728265 116.684 0.69274ZM116.67 5.73731L116.698 5.52416C116.698 5.3939 116.738 5.26364 116.819 5.13338L116.887 5.06233C116.95 4.99128 117.018 4.94984 117.09 4.938C117.162 4.91431 117.229 4.90839 117.292 4.92023H126.88C126.925 4.92023 126.975 4.92615 127.029 4.938C127.092 4.94984 127.146 4.98536 127.191 5.04457C127.236 5.06825 127.277 5.12154 127.313 5.20443C127.349 5.28733 127.371 5.35838 127.38 5.41758C127.389 5.42943 127.394 5.49456 127.394 5.61297V6.9274C127.394 7.14055 127.344 7.31226 127.245 7.44252C127.155 7.56094 127.029 7.62014 126.866 7.62014H117.198C117.153 7.62014 117.099 7.61422 117.036 7.60238C116.981 7.59054 116.927 7.55502 116.873 7.49581C116.864 7.48396 116.855 7.47804 116.846 7.47804C116.837 7.4662 116.828 7.44844 116.819 7.42476C116.729 7.33002 116.679 7.20568 116.67 7.05174V5.73731Z" stroke="url(#paint38_linear_2334_298)" stroke-opacity="0.65" mask="url(#path-2-inside-2_2334_298)"/>
<path d="M138.551 0.0532869C139.399 0.0532869 140.043 0.34933 140.485 0.941416C140.936 1.52166 141.161 2.36834 141.161 3.48146V5.95046C141.161 6.53071 141.107 7.02214 140.999 7.42476C140.9 7.81553 140.742 8.14118 140.526 8.4017C140.318 8.66222 140.057 8.86352 139.741 9.00563C139.426 9.14773 139.056 9.24838 138.632 9.30759C138.605 9.30759 138.587 9.32535 138.578 9.36088C138.569 9.38456 138.574 9.40824 138.592 9.43193C138.736 9.60955 138.916 9.83455 139.133 10.1069C139.349 10.3674 139.57 10.6398 139.795 10.924C140.021 11.2082 140.233 11.4805 140.431 11.7411C140.638 12.0016 140.8 12.2088 140.918 12.3628C140.936 12.3864 140.936 12.416 140.918 12.4516C140.909 12.4752 140.895 12.4871 140.877 12.4871H137.808C137.78 12.4871 137.767 12.4812 137.767 12.4693C137.379 11.972 136.965 11.445 136.523 10.8885C136.081 10.3201 135.653 9.77534 135.238 9.2543C134.824 8.72142 134.44 8.23591 134.089 7.79777C133.746 7.35963 133.476 7.01622 133.277 6.76754C133.259 6.74386 133.255 6.72017 133.264 6.69649C133.273 6.66097 133.291 6.6432 133.318 6.6432H138.213C138.484 6.6432 138.664 6.58399 138.754 6.46558C138.853 6.34716 138.903 6.11033 138.903 5.75507V3.65909C138.903 3.44594 138.889 3.292 138.862 3.19726C138.835 3.09069 138.804 3.01372 138.768 2.96635C138.732 2.90714 138.673 2.85977 138.592 2.82425C138.511 2.78872 138.384 2.77096 138.213 2.77096H129.978C129.942 2.77096 129.924 2.74728 129.924 2.69991V0.746028C129.924 0.544718 129.974 0.378934 130.073 0.248676C130.172 0.118416 130.298 0.0532869 130.451 0.0532869H138.551Z" stroke="url(#paint39_linear_2334_298)" stroke-opacity="0.65" mask="url(#path-2-inside-2_2334_298)"/>
<defs>
<linearGradient id="paint0_linear_2334_298" x1="30.4127" y1="42.3333" x2="45.7408" y2="68.4518" gradientUnits="userSpaceOnUse">
<stop stop-color="#A73EE7"/>
<stop offset="1" stop-color="#00EBFF"/>
</linearGradient>
<linearGradient id="paint1_linear_2334_298" x1="30.4127" y1="42.3333" x2="45.7408" y2="68.4518" gradientUnits="userSpaceOnUse">
<stop stop-color="#A73EE7"/>
<stop offset="1" stop-color="#00EBFF"/>
</linearGradient>
<linearGradient id="paint2_linear_2334_298" x1="30.4127" y1="42.3333" x2="45.7408" y2="68.4518" gradientUnits="userSpaceOnUse">
<stop stop-color="#A73EE7"/>
<stop offset="1" stop-color="#00EBFF"/>
</linearGradient>
<linearGradient id="paint3_linear_2334_298" x1="30.4127" y1="42.3333" x2="45.7408" y2="68.4518" gradientUnits="userSpaceOnUse">
<stop stop-color="#A73EE7"/>
<stop offset="1" stop-color="#00EBFF"/>
</linearGradient>
<linearGradient id="paint4_linear_2334_298" x1="30.4127" y1="42.3333" x2="45.7408" y2="68.4518" gradientUnits="userSpaceOnUse">
<stop stop-color="#A73EE7"/>
<stop offset="1" stop-color="#00EBFF"/>
</linearGradient>
<linearGradient id="paint5_linear_2334_298" x1="30.4127" y1="42.3333" x2="45.7408" y2="68.4518" gradientUnits="userSpaceOnUse">
<stop stop-color="#A73EE7"/>
<stop offset="1" stop-color="#00EBFF"/>
</linearGradient>
<linearGradient id="paint6_linear_2334_298" x1="30.4127" y1="42.3333" x2="45.7408" y2="68.4518" gradientUnits="userSpaceOnUse">
<stop stop-color="#A73EE7"/>
<stop offset="1" stop-color="#00EBFF"/>
</linearGradient>
<linearGradient id="paint7_linear_2334_298" x1="30.4127" y1="42.3333" x2="45.7408" y2="68.4518" gradientUnits="userSpaceOnUse">
<stop stop-color="#A73EE7"/>
<stop offset="1" stop-color="#00EBFF"/>
</linearGradient>
<linearGradient id="paint8_linear_2334_298" x1="30.4127" y1="42.3333" x2="45.7408" y2="68.4518" gradientUnits="userSpaceOnUse">
<stop stop-color="#A73EE7"/>
<stop offset="1" stop-color="#00EBFF"/>
</linearGradient>
<linearGradient id="paint9_linear_2334_298" x1="30.4127" y1="42.3333" x2="45.7408" y2="68.4518" gradientUnits="userSpaceOnUse">
<stop stop-color="#A73EE7"/>
<stop offset="1" stop-color="#00EBFF"/>
</linearGradient>
<linearGradient id="paint10_linear_2334_298" x1="-7.29268" y1="-3.13953" x2="126.464" y2="21.3694" gradientUnits="userSpaceOnUse">
<stop stop-color="white"/>
<stop offset="1" stop-color="white" stop-opacity="0"/>
</linearGradient>
<linearGradient id="paint11_linear_2334_298" x1="-7.29268" y1="-3.13953" x2="126.464" y2="21.3694" gradientUnits="userSpaceOnUse">
<stop stop-color="white"/>
<stop offset="1" stop-color="white" stop-opacity="0"/>
</linearGradient>
<linearGradient id="paint12_linear_2334_298" x1="-7.29268" y1="-3.13953" x2="126.464" y2="21.3694" gradientUnits="userSpaceOnUse">
<stop stop-color="white"/>
<stop offset="1" stop-color="white" stop-opacity="0"/>
</linearGradient>
<linearGradient id="paint13_linear_2334_298" x1="-7.29268" y1="-3.13953" x2="126.464" y2="21.3694" gradientUnits="userSpaceOnUse">
<stop stop-color="white"/>
<stop offset="1" stop-color="white" stop-opacity="0"/>
</linearGradient>
<linearGradient id="paint14_linear_2334_298" x1="-7.29268" y1="-3.13953" x2="126.464" y2="21.3694" gradientUnits="userSpaceOnUse">
<stop stop-color="white"/>
<stop offset="1" stop-color="white" stop-opacity="0"/>
</linearGradient>
<linearGradient id="paint15_linear_2334_298" x1="-7.29268" y1="-3.13953" x2="126.464" y2="21.3694" gradientUnits="userSpaceOnUse">
<stop stop-color="white"/>
<stop offset="1" stop-color="white" stop-opacity="0"/>
</linearGradient>
<linearGradient id="paint16_linear_2334_298" x1="-7.29268" y1="-3.13953" x2="126.464" y2="21.3694" gradientUnits="userSpaceOnUse">
<stop stop-color="white"/>
<stop offset="1" stop-color="white" stop-opacity="0"/>
</linearGradient>
<linearGradient id="paint17_linear_2334_298" x1="-7.29268" y1="-3.13953" x2="126.464" y2="21.3694" gradientUnits="userSpaceOnUse">
<stop stop-color="white"/>
<stop offset="1" stop-color="white" stop-opacity="0"/>
</linearGradient>
<linearGradient id="paint18_linear_2334_298" x1="-7.29268" y1="-3.13953" x2="126.464" y2="21.3694" gradientUnits="userSpaceOnUse">
<stop stop-color="white"/>
<stop offset="1" stop-color="white" stop-opacity="0"/>
</linearGradient>
<linearGradient id="paint19_linear_2334_298" x1="-7.29268" y1="-3.13953" x2="126.464" y2="21.3694" gradientUnits="userSpaceOnUse">
<stop stop-color="white"/>
<stop offset="1" stop-color="white" stop-opacity="0"/>
</linearGradient>
<linearGradient id="paint20_linear_2334_298" x1="96.9765" y1="-23" x2="38.6005" y2="10.8559" gradientUnits="userSpaceOnUse">
<stop stop-color="#A73EE7"/>
<stop offset="1" stop-color="#00EBFF"/>
</linearGradient>
<linearGradient id="paint21_linear_2334_298" x1="96.9765" y1="-23" x2="38.6005" y2="10.8559" gradientUnits="userSpaceOnUse">
<stop stop-color="#A73EE7"/>
<stop offset="1" stop-color="#00EBFF"/>
</linearGradient>
<linearGradient id="paint22_linear_2334_298" x1="96.9765" y1="-23" x2="38.6005" y2="10.8559" gradientUnits="userSpaceOnUse">
<stop stop-color="#A73EE7"/>
<stop offset="1" stop-color="#00EBFF"/>
</linearGradient>
<linearGradient id="paint23_linear_2334_298" x1="96.9765" y1="-23" x2="38.6005" y2="10.8559" gradientUnits="userSpaceOnUse">
<stop stop-color="#A73EE7"/>
<stop offset="1" stop-color="#00EBFF"/>
</linearGradient>
<linearGradient id="paint24_linear_2334_298" x1="96.9765" y1="-23" x2="38.6005" y2="10.8559" gradientUnits="userSpaceOnUse">
<stop stop-color="#A73EE7"/>
<stop offset="1" stop-color="#00EBFF"/>
</linearGradient>
<linearGradient id="paint25_linear_2334_298" x1="96.9765" y1="-23" x2="38.6005" y2="10.8559" gradientUnits="userSpaceOnUse">
<stop stop-color="#A73EE7"/>
<stop offset="1" stop-color="#00EBFF"/>
</linearGradient>
<linearGradient id="paint26_linear_2334_298" x1="96.9765" y1="-23" x2="38.6005" y2="10.8559" gradientUnits="userSpaceOnUse">
<stop stop-color="#A73EE7"/>
<stop offset="1" stop-color="#00EBFF"/>
</linearGradient>
<linearGradient id="paint27_linear_2334_298" x1="96.9765" y1="-23" x2="38.6005" y2="10.8559" gradientUnits="userSpaceOnUse">
<stop stop-color="#A73EE7"/>
<stop offset="1" stop-color="#00EBFF"/>
</linearGradient>
<linearGradient id="paint28_linear_2334_298" x1="96.9765" y1="-23" x2="38.6005" y2="10.8559" gradientUnits="userSpaceOnUse">
<stop stop-color="#A73EE7"/>
<stop offset="1" stop-color="#00EBFF"/>
</linearGradient>
<linearGradient id="paint29_linear_2334_298" x1="96.9765" y1="-23" x2="38.6005" y2="10.8559" gradientUnits="userSpaceOnUse">
<stop stop-color="#A73EE7"/>
<stop offset="1" stop-color="#00EBFF"/>
</linearGradient>
<linearGradient id="paint30_linear_2334_298" x1="168.219" y1="-94.1417" x2="-1.2677" y2="-10.7079" gradientUnits="userSpaceOnUse">
<stop stop-color="white"/>
<stop offset="1" stop-color="white" stop-opacity="0"/>
</linearGradient>
<linearGradient id="paint31_linear_2334_298" x1="168.219" y1="-94.1417" x2="-1.2677" y2="-10.7079" gradientUnits="userSpaceOnUse">
<stop stop-color="white"/>
<stop offset="1" stop-color="white" stop-opacity="0"/>
</linearGradient>
<linearGradient id="paint32_linear_2334_298" x1="168.219" y1="-94.1417" x2="-1.2677" y2="-10.7079" gradientUnits="userSpaceOnUse">
<stop stop-color="white"/>
<stop offset="1" stop-color="white" stop-opacity="0"/>
</linearGradient>
<linearGradient id="paint33_linear_2334_298" x1="168.219" y1="-94.1417" x2="-1.2677" y2="-10.7079" gradientUnits="userSpaceOnUse">
<stop stop-color="white"/>
<stop offset="1" stop-color="white" stop-opacity="0"/>
</linearGradient>
<linearGradient id="paint34_linear_2334_298" x1="168.219" y1="-94.1417" x2="-1.2677" y2="-10.7079" gradientUnits="userSpaceOnUse">
<stop stop-color="white"/>
<stop offset="1" stop-color="white" stop-opacity="0"/>
</linearGradient>
<linearGradient id="paint35_linear_2334_298" x1="168.219" y1="-94.1417" x2="-1.2677" y2="-10.7079" gradientUnits="userSpaceOnUse">
<stop stop-color="white"/>
<stop offset="1" stop-color="white" stop-opacity="0"/>
</linearGradient>
<linearGradient id="paint36_linear_2334_298" x1="168.219" y1="-94.1417" x2="-1.2677" y2="-10.7079" gradientUnits="userSpaceOnUse">
<stop stop-color="white"/>
<stop offset="1" stop-color="white" stop-opacity="0"/>
</linearGradient>
<linearGradient id="paint37_linear_2334_298" x1="168.219" y1="-94.1417" x2="-1.2677" y2="-10.7079" gradientUnits="userSpaceOnUse">
<stop stop-color="white"/>
<stop offset="1" stop-color="white" stop-opacity="0"/>
</linearGradient>
<linearGradient id="paint38_linear_2334_298" x1="168.219" y1="-94.1417" x2="-1.2677" y2="-10.7079" gradientUnits="userSpaceOnUse">
<stop stop-color="white"/>
<stop offset="1" stop-color="white" stop-opacity="0"/>
</linearGradient>
<linearGradient id="paint39_linear_2334_298" x1="168.219" y1="-94.1417" x2="-1.2677" y2="-10.7079" gradientUnits="userSpaceOnUse">
<stop stop-color="white"/>
<stop offset="1" stop-color="white" stop-opacity="0"/>
</linearGradient>
</defs>
</svg>
