<svg width="536" height="134" viewBox="0 0 536 134" fill="none" xmlns="http://www.w3.org/2000/svg">
<mask id="mask0_2518_292" style="mask-type:luminance" maskUnits="userSpaceOnUse" x="0" y="0" width="536" height="133">
<path d="M536 0H0V132.019H536V0Z" fill="white"/>
</mask>
<g mask="url(#mask0_2518_292)">
<path d="M70.1383 132.019C28.1274 132.001 0.0407715 102.239 0.0407715 66.1195C0.0407715 30.019 28.1845 -0.11389 70.0812 0.000323618H465.94C507.817 -0.113873 535.961 30.019 535.961 66.1195C535.961 102.239 507.883 132.001 465.873 132.019H70.1383Z" fill="#ED1C24"/>
<path d="M70.2618 16.2285C36.9881 16.2856 16.5823 38.5379 16.5823 66.0345C16.5823 93.5403 36.8834 115.945 70.2618 115.831H465.73C499.137 115.945 519.419 93.5403 519.419 66.0345C519.419 38.5379 499.003 16.2856 465.73 16.2285H70.2618Z" fill="white"/>
<path d="M53.1966 34.8169H72.5746L99.3667 78.1603L99.3567 34.8169H118.564V96.9767H99.376L72.4505 53.6333V96.9767H53.1963L53.1966 34.8169Z" fill="#ED1C24"/>
<path d="M223.019 41.2126H241.731V49.5787H251.849V55.727H241.731L241.75 96.9767H223.019L223.029 55.727H212.873V49.5977L223.029 49.5787L223.019 41.2126Z" fill="#ED1C24"/>
<path d="M129.26 55.6396H147.953V96.9841H129.26V55.6396Z" fill="#ED1C24"/>
<path d="M129.214 34.7964H147.954V47.512H129.214V34.7964Z" fill="#ED1C24"/>
<path d="M456.792 52.8325C441.707 52.8325 429.477 63.2067 429.477 76.027C429.477 88.8379 441.707 99.2313 456.792 99.2313C471.887 99.2313 484.098 88.8379 484.098 76.027C484.098 63.2067 471.887 52.8325 456.792 52.8325ZM464.301 75.97C464.301 75.97 464.282 82.2135 464.282 84.7258C464.282 91.3127 460.399 94.0245 456.64 94.0245C452.89 94.0245 448.978 91.3127 448.978 84.7258C448.978 82.2135 448.987 75.8082 448.987 75.8082C448.987 75.8082 448.998 69.7073 448.998 67.2042C448.998 60.637 452.928 57.9435 456.64 57.9435C460.371 57.9435 464.283 60.637 464.283 67.2042C464.283 69.7073 464.274 74.3425 464.302 75.989L464.301 75.97Z" fill="#ED1C24"/>
<path d="M405.073 76.1045V68.7093C405.073 62.3134 400.657 60.6954 397.754 60.6954C394.775 60.6954 390.426 62.3134 390.426 68.7093V76.0664V83.4236C390.426 89.8287 394.775 91.4752 397.754 91.4752C400.657 91.4752 405.073 89.8287 405.073 83.4236V76.1045ZM404.95 34.8169H423.385V96.9675H404.911C404.911 96.9675 404.902 94.9592 404.902 94.5873C397.755 99.0613 389.684 99.0613 383.383 96.1484C381.698 95.3495 370.61 90.0288 370.61 75.6381C370.61 64.7309 380.889 52.8148 394.366 54.0044C398.801 54.3947 401.951 56.0127 404.95 57.7069V34.8169Z" fill="#ED1C24"/>
<path d="M191.707 53.7362C198.702 53.5363 212.865 58.1048 212.769 74.4657C212.75 77.3875 212.76 96.9657 212.76 96.9657H194.2V69.8211C194.2 66.2139 190.756 62.2164 185.654 62.2164C180.562 62.2164 176.784 66.2139 176.784 69.8211C176.784 71.5818 176.802 96.9657 176.802 96.9657H158.252L158.234 55.6398L176.802 55.6207C176.802 55.6207 176.784 58.9424 176.802 59.9703C180.381 56.563 185.54 53.9076 191.707 53.7362Z" fill="#ED1C24"/>
<path d="M343.59 53.7362C350.576 53.5363 364.757 58.1048 364.662 74.4657C364.643 77.3875 364.662 96.9657 364.662 96.9657H346.083V69.8211C346.083 66.2139 342.638 62.2164 337.537 62.2164C332.445 62.2164 328.676 66.2139 328.676 69.8211C328.676 71.5818 328.694 96.9657 328.694 96.9657H310.145V55.6398L328.694 55.6207C328.694 55.6207 328.676 58.9424 328.694 59.9703C332.264 56.563 337.413 53.9076 343.59 53.7362Z" fill="#ED1C24"/>
<path d="M284.789 82.5084C284.789 82.5084 284.798 82.6988 284.798 85.0214C284.798 92.5782 279.83 94.2624 277.07 94.2624C274.32 94.2624 269.246 92.5782 269.246 85.0214C269.246 82.7559 269.265 76.4932 269.265 76.4932C269.265 76.4932 304.471 76.5122 304.471 76.4742C304.471 63.6635 292.098 53.0513 276.898 53.0513C261.699 53.0513 249.383 63.4256 249.383 76.2554C249.383 89.085 261.699 99.4499 276.898 99.4499C289.509 99.4499 300.169 92.2549 303.414 82.4894L284.789 82.5084ZM269.266 70.0403C269.228 66.4236 269.304 64.0061 270.494 61.9407C271.949 59.39 274.634 58.1813 277.07 58.1622C279.497 58.1812 282.181 59.39 283.628 61.9407C284.818 64.0061 284.884 66.4236 284.855 70.0403H269.266Z" fill="#ED1C24"/>
<path d="M487.953 41.6392C489.772 41.6392 491.399 41.5249 491.399 39.3359C491.399 37.5847 489.809 37.2705 488.315 37.2705H485.403V41.6392H487.953ZM485.403 49.5959H483.262V35.4526H488.629C491.98 35.4526 493.636 36.6805 493.636 39.4787C493.636 42.0103 492.046 43.1049 489.972 43.3714L493.988 49.5959H491.59L487.849 43.457H485.403V49.5959Z" fill="#ED1C24"/>
<path d="M487.982 52.7576C493.54 52.7576 497.918 48.408 497.918 42.4976C497.918 36.6822 493.54 32.3137 487.982 32.3137C482.376 32.3137 477.988 36.6822 477.988 42.4976C477.988 48.408 482.376 52.7576 487.982 52.7576ZM475.532 42.4976C475.532 35.4545 481.234 30.2673 487.982 30.2673C494.673 30.2673 500.384 35.4545 500.384 42.4976C500.384 49.5978 494.673 54.8039 487.982 54.8039C481.234 54.8039 475.532 49.5978 475.532 42.4976Z" fill="#ED1C24"/>
</g>
</svg>
