<svg width="65" height="65" viewBox="0 0 65 65" fill="none" xmlns="http://www.w3.org/2000/svg">
<path fill-rule="evenodd" clip-rule="evenodd" d="M61.6242 16.0821C61.6242 15.82 61.2994 15.6103 60.9746 15.6628L54.6733 14.9289H54.4784H45.7085C45.1888 11.6267 43.6297 6.07061 40.6415 2.87323C39.0174 1.09109 37.0685 0.200012 34.9898 0.200012C33.6905 0.200012 32.3913 0.566929 31.3519 1.19592C30.3125 0.671762 29.0132 0.462096 27.779 0.514512C21.8025 0.986256 19.9835 8.06242 19.5937 14.9289C14.3968 14.9289 9.13483 14.9813 3.93787 15.0862C3.54809 15.0862 3.22328 15.2958 3.22328 15.6103C3.09336 17.5497 2.5087 25.0976 1.72915 36.734C0.884645 49.0518 0.429912 55.761 0.299988 57.5432C0.299988 57.8053 0.559832 58.0149 0.884643 58.0673L26.025 61.1599L50.9055 64.2C51.1004 64.2 51.2953 64.2 51.4901 64.0952L63.768 57.7528C64.1577 57.5956 64.3526 57.2811 64.2877 56.9142L61.6242 16.0821ZM34.9898 2.08699C36.224 2.13941 37.3934 2.61115 38.1079 3.39739C41.1612 6.07061 42.6553 11.7315 43.3049 14.9289H39.5371C38.6926 10.6832 36.5489 5.28437 33.3007 2.4539C33.8204 2.19182 34.4701 2.08699 34.9898 2.08699ZM31.5468 3.71189C34.4051 6.07061 36.354 10.9977 37.1335 14.9289H27.9738C28.2337 11.3122 29.1432 6.28027 31.5468 3.71189ZM20.7631 41.8184L13.942 43.8102C12.7727 44.1771 12.5778 44.6488 13.5523 44.9109C14.8515 45.173 16.2157 45.1206 17.5149 44.7537L20.7631 43.8102V46.5882L20.1134 46.6931C16.7354 47.1648 13.2274 46.9027 9.91438 46.0117C6.73123 45.2778 6.14658 43.7578 7.6407 42.8667C8.74506 42.2901 9.97934 41.8184 11.2786 41.4514L20.7631 38.7258V41.8184ZM28.1038 2.40148C28.6235 2.34907 29.2081 2.40149 29.6629 2.61115C26.6746 5.91337 25.8301 11.6791 25.5702 14.9289H21.9973C22.4521 7.17134 24.5958 2.66357 28.1038 2.40148ZM28.6884 29.9723V49.7332L22.0623 48.0559V24.4686C25.1155 24.9928 28.1687 25.6742 31.157 26.4605C36.7437 28.0329 38.6276 29.9199 38.6276 34.2705C38.6276 38.5162 35.3795 40.141 31.2869 38.5161V30.6537C31.2869 29.7102 31.092 28.8716 29.9877 28.6095C29.2081 28.4523 28.6884 29.0288 28.6884 29.9723ZM47.0727 43.8102C46.2932 44.5964 44.3443 45.173 44.3443 45.173L29.9227 49.3663V46.2737L40.5765 43.2336C41.7458 42.8667 41.9407 42.3949 40.9663 42.1329C39.667 41.8708 38.3028 41.9232 37.0036 42.2901L29.9227 44.2819V41.0845L30.3125 40.9797C31.9365 40.5604 33.5606 40.2983 35.2496 40.141C38.3678 39.879 41.486 40.1935 44.4093 41.0321C47.5274 41.8184 47.8523 43.0239 47.0727 43.8102Z" fill="#0072CE"/>
</svg>
