<svg width="279" height="280" viewBox="0 0 279 280" fill="none" xmlns="http://www.w3.org/2000/svg">
<path d="M125.783 278.851C104.355 276.808 82.6487 269.097 63.9766 256.897C48.3391 246.678 44.809 242.498 44.809 234.106C44.809 217.292 63.2954 187.813 94.88 154.247C112.84 135.172 137.829 112.815 140.523 113.403C145.787 114.58 187.807 155.64 203.538 174.931C228.434 205.525 239.891 230.545 234.069 241.693C229.641 250.177 202.237 266.744 182.11 273.092C165.512 278.356 143.712 280.585 125.783 278.851ZM23.7216 216.642C10.7471 196.7 4.18244 177.037 0.993008 148.642C-0.0598155 139.259 0.311769 133.902 3.37734 114.642C7.18608 90.6437 20.8109 62.8987 37.2225 45.8058C44.2207 38.5289 44.84 38.3431 53.3555 41.2229C63.6979 44.722 74.7216 52.3395 91.8454 67.8531L101.847 76.895L96.3974 83.6145C71.0367 114.766 44.3136 158.922 34.2498 186.234C28.769 201.066 26.5704 215.992 28.9238 222.185C30.503 226.365 29.0476 224.817 23.7216 216.642ZM251.627 220.017C252.896 213.762 251.286 202.243 247.477 190.631C239.272 165.487 211.743 118.667 186.476 86.8659L178.518 76.8641L187.126 68.9369C198.366 58.5945 206.17 52.4014 214.592 47.1683C221.25 43.0189 230.725 39.365 234.813 39.365C237.321 39.365 246.177 48.5617 253.33 58.6255C264.416 74.1701 272.559 93.059 276.678 112.691C279.341 125.387 279.558 152.543 277.111 165.177C275.099 175.551 270.825 189.021 266.676 198.186C263.548 205.03 255.807 218.314 252.401 222.649C250.667 224.817 250.667 224.817 251.627 220.017ZM128.075 34.5963C116.401 28.651 98.4101 22.3031 88.4702 20.569C84.9711 19.9807 79.0567 19.64 75.248 19.8258C67.0422 20.2284 67.4138 19.8258 80.574 13.6018C91.5048 8.43057 100.64 5.39596 113.026 2.79487C126.96 -0.146844 153.126 -0.17781 166.844 2.73294C181.645 5.86044 199.079 12.3632 208.895 18.4014L211.805 20.1974L205.117 19.8568C191.802 19.1756 172.417 24.5635 151.578 34.7202C145.292 37.7857 139.842 40.232 139.439 40.1391C139.068 40.0772 133.927 37.569 128.075 34.5963Z" fill="#107C10"/>
</svg>
